<svg xmlns="http://www.w3.org/2000/svg" width="14" height="12" viewBox="0 0 14 12">
  <metadata><?xpacket begin="﻿" id="W5M0MpCehiHzreSzNTczkc9d"?>
<x:xmpmeta xmlns:x="adobe:ns:meta/" x:xmptk="Adobe XMP Core 5.6-c138 79.159824, 2016/09/14-01:09:01        ">
   <rdf:RDF xmlns:rdf="http://www.w3.org/1999/02/22-rdf-syntax-ns#">
      <rdf:Description rdf:about=""/>
   </rdf:RDF>
</x:xmpmeta>
<?xpacket end="w"?></metadata>
<defs>
    <style>
      .cls-1 {
        fill: #ababab;
        fill-rule: evenodd;
      }
    </style>
  </defs>
  <path id="Forme_1" data-name="Forme 1" class="cls-1" d="M22.939,21.62c0.022-.15.485-3.751-1.592-6.229a7.533,7.533,0,0,0-5.787-2.439l-0.014-2.5a0.447,0.447,0,0,0-.25-0.4,0.433,0.433,0,0,0-.464.057L9.161,14.849a0.452,0.452,0,0,0,0,.691l5.672,4.792a0.428,0.428,0,0,0,.464.059,0.446,0.446,0,0,0,.251-0.4l0.014-2.56c6.128,0,6.563,4,6.578,4.165a0.4,0.4,0,0,0,.38.407h0.015A0.414,0.414,0,0,0,22.939,21.62Z" transform="translate(-9 -10)"/>
</svg>
