<svg xmlns="http://www.w3.org/2000/svg" width="23" height="9.031" viewBox="0 0 23 9.031">
  <metadata><?xpacket begin="﻿" id="W5M0MpCehiHzreSzNTczkc9d"?>
<x:xmpmeta xmlns:x="adobe:ns:meta/" x:xmptk="Adobe XMP Core 5.6-c138 79.159824, 2016/09/14-01:09:01        ">
   <rdf:RDF xmlns:rdf="http://www.w3.org/1999/02/22-rdf-syntax-ns#">
      <rdf:Description rdf:about=""/>
   </rdf:RDF>
</x:xmpmeta>                          
<?xpacket end="w"?></metadata>
<defs>
    <style>
      .back-arrow {
        fill: #5e5e5e;
        fill-rule: evenodd;
      }
    </style>
  </defs>
  <path class="back-arrow" d="M783.582,164.1a0.531,0.531,0,0,1,.709,0,0.43,0.43,0,0,1,0,.641l-3.6,3.283H801.49a0.48,0.48,0,0,1,.5.454,0.486,0.486,0,0,1-.5.46H780.7l3.6,3.277a0.438,0.438,0,0,1,0,.648,0.531,0.531,0,0,1-.709,0l-4.446-4.061a0.43,0.43,0,0,1,0-.641Z" transform="translate(-779 -163.969)"/>
</svg>
