<?xml version="1.0" encoding="utf-8"?>
<!-- Generator: Adobe Illustrator 21.0.0, SVG Export Plug-In . SVG Version: 6.00 Build 0)  -->
<svg version="1.1" id="Mode_Isolation" xmlns="http://www.w3.org/2000/svg" xmlns:xlink="http://www.w3.org/1999/xlink" x="0px"
	 y="0px" viewBox="0 0 194.2 194.2" style="enable-background:new 0 0 194.2 194.2;" xml:space="preserve">
<style type="text/css">
	.botcolor0{fill:#F9F9F9;}
	.botcolor1{fill-rule:evenodd;clip-rule:evenodd;fill:#EEEEEE;}
	.botcolor2{fill:#3333FE;}
	.botcolor3{fill:none;}
	.botcolorwhite{fill:#FFFFFF;}
	.botopacity{opacity:0.1;}
	.botcolor4{fill-rule:evenodd;clip-rule:evenodd;fill:#D1D1D1;}
	.botcolor5{fill-rule:evenodd;clip-rule:evenodd;fill:#FFFFFF;}
	.botcolor6{opacity:5.000000e-02;fill-rule:evenodd;clip-rule:evenodd;}
	.botopacity2{opacity:5.000000e-02;}
</style>
<g>
	<circle class="botcolor0" cx="97.1" cy="97.1" r="97.1"/>
</g>
<path class="botcolor1" d="M98.7,174.6c16.9,0,31.5-4.1,38.9-10.1c-9.2-13.2-24.5-21.9-41.9-21.9c-15.8,0-29.8,7.2-39.2,18.4
	C61.9,168.9,78.8,174.6,98.7,174.6z"/>
<path class="botcolor2" d="M130.6,111.9"/>
<g>
	<path class="botcolor3" d="M194.2,97.1C194.2,43.5,150.8,0,97.1,0S0,43.5,0,97.1c0,35.1,18.6,65.9,46.6,83c5.7-20.7,24.2-36.2,46.4-37.4
		h0c0,0,0,0,0,0c0.9,0,1.8-0.1,2.7-0.1c24,0,44.1,16.6,49.5,38.9C174.5,164.7,194.2,133.2,194.2,97.1z"/>
	<path class="botcolorwhite" d="M93,142.7c0.9,0,1.8-0.1,2.7-0.1C94.8,142.6,93.9,142.7,93,142.7z"/>
	<path class="botcolorwhite" d="M124.5,190.3c-1.8-20.7-14.1-38.3-31.5-47.6c-22.3,1.2-40.7,16.6-46.4,37.4c14.7,9,32,14.2,50.5,14.2
		C106.6,194.2,115.8,192.9,124.5,190.3z"/>
	<polygon class="botopacity" points="93,142.7 93,142.7 93,142.7 	"/>
	<path class="botcolorwhite" d="M95.7,142.6c-0.9,0-1.8,0-2.7,0.1c0,0,0,0,0,0c17.4,9.3,29.7,27,31.5,47.6c7.3-2.1,14.3-5.1,20.8-8.8
		C139.8,159.2,119.7,142.6,95.7,142.6z"/>
	<path class="botopacity" d="M95.7,142.6c-0.9,0-1.8,0-2.7,0.1c0,0,0,0,0,0c17.4,9.3,29.7,27,31.5,47.6c7.3-2.1,14.3-5.1,20.8-8.8
		C139.8,159.2,119.7,142.6,95.7,142.6z"/>
</g>
<g id="Ears">
	<path id="Ear_Left" class="botcolor4" d="M165.7,78.2c2.9,0,5.3,2.4,5.3,5.3v12c0,2.9-2.4,5.3-5.3,5.3c-2.9,0-5.3-2.4-5.3-5.3v-12
		C160.3,80.6,162.7,78.2,165.7,78.2z"/>
	<path id="Ear_right_1_" class="botcolor1" d="M31.2,78.2c2.9,0,5.3,2.4,5.3,5.3v12c0,2.9-2.4,5.3-5.3,5.3c-2.9,0-5.3-2.4-5.3-5.3v-12
		C25.8,80.6,28.2,78.2,31.2,78.2z"/>
</g>
<g id="Head_1_">
	<path id="Head" class="botcolorwhite" d="M32,120.4c0,16.8,14.1,30.4,31.6,30.4h69.4c2.5,0,31.6-1.8,31.6-30.4V84.3
		c0-11.3-5.8-21.9-15.4-28.4l-31.5-21.1c-11.6-7.8-27.1-7.8-38.7,0L47.4,55.9C37.8,62.3,32,72.9,32,84.3"/>
	<path id="Head_sdw" class="botopacity" d="M149.1,55.9l-31.5-21.1c-6.6-4.4-14.3-6.3-21.9-5.7c1.2,0.6,2.3,1.3,3.5,2l33.9,22.8
		c10.4,7,16.6,18.4,16.6,30.6v39c0,14.7-7.1,22.8-14.9,27.3c6.9-0.7,29.7-5,29.7-30.2V84.3C164.5,72.9,158.7,62.3,149.1,55.9z"/>
</g>
<path class="botcolor2" d="M114.7,127.6c0,0,16.7-0.7,21.3,3.2c0.1,0.1,0.3,0.1,0.4,0c3.5-3.8,5.6-8.8,5.6-14.3V83.9
	c0-7.9-3.9-15.3-10.3-19.8l-21.1-14.7c-7.8-5.4-18.1-5.4-25.9,0L63.5,64C57,68.6,53.2,76,53.2,83.9v32.6c0,11.7,9.5,21.2,21.2,21.2
	h46.5c1.7,0,3.3-0.2,4.8-0.6c0.2-0.1,0.3-0.4,0.1-0.5l-10.9-9.1c-0.2-0.2-0.5-0.3-0.8-0.3"/>
<g id="Eyes">
	<circle class="botcolor5" cx="68.4" cy="94.9" r="6.7"/>
	<circle class="botcolor5" cx="124.4" cy="94.9" r="6.7"/>
</g>
<path id="Mouth" class="botcolor5" d="M109.7,114.8c0,6.3-5.1,11.3-11.3,11.3s-11.3-5.1-11.3-11.3H109.7z"/>
<g id="Antenna">
	<ellipse id="socle" class="botcolor4" cx="98.9" cy="32.3" rx="5.3" ry="2.7"/>
	<path id="socle_sdw" class="botcolor6" d="M98.9,33.6c-2.2,0-4.1-0.5-5.3-1.3c0,0,0,0,0,0c0,1.5,2.4,2.7,5.3,2.7c2.9,0,5.3-1.2,5.3-2.7
		c0,0,0,0,0,0C103,33.1,101.1,33.6,98.9,33.6z"/>
	<rect id="tube" x="97.7" y="21.6" class="botcolorwhite" width="2.7" height="10.7"/>
	<rect id="Tube_sdw" x="99.1" y="24.3" class="botopacity2" width="1.3" height="8"/>
	<circle class="botcolorwhite" cx="99.1" cy="21.6" r="4"/>
	<path class="botopacity2" d="M100.1,17.8c1,1,1.7,2.3,1.7,3.9s-0.6,2.9-1.7,3.9c1.7-0.4,3-2,3-3.9C103.1,19.8,101.8,18.2,100.1,17.8z"/>
</g>
</svg>
