<svg id="Calque_1" xmlns="http://www.w3.org/2000/svg" viewBox="0 0 24 24">
<title>bubble</title>
<path d="M9.7,0.2C5,1.1,1.1,4.9,0.3,9.7c-0.7,3.6,0.3,6.9,2.2,9.4C3,19.8,2.9,21.6,1,23.2c-0.3,0.2-0.1,0.7,0.2,0.8
	c2.3,0.3,4.9-1.6,5.7-1.2c2,0.9,4.2,1.3,6.6,1c5.4-0.7,9.8-5.1,10.4-10.6C24.8,5.3,17.8-1.3,9.7,0.2z M7.7,13.3
	c-0.7,0-1.3-0.6-1.3-1.3c0-0.7,0.6-1.3,1.3-1.3c0.7,0,1.3,0.6,1.3,1.3C9,12.7,8.4,13.3,7.7,13.3z M12.1,13.3c-0.7,0-1.3-0.6-1.3-1.3
	c0-0.7,0.6-1.3,1.3-1.3c0.7,0,1.3,0.6,1.3,1.3C13.5,12.7,12.9,13.3,12.1,13.3z M16.6,13.3c-0.7,0-1.3-0.6-1.3-1.3
	c0-0.7,0.6-1.3,1.3-1.3c0.7,0,1.3,0.6,1.3,1.3C17.9,12.7,17.3,13.3,16.6,13.3z" style="fill:#fff"/>
</svg>
