<svg xmlns="http://www.w3.org/2000/svg" width="14" height="11" viewBox="0 0 14 11">
  <metadata><?xpacket begin="﻿" id="W5M0MpCehiHzreSzNTczkc9d"?>
<x:xmpmeta xmlns:x="adobe:ns:meta/" x:xmptk="Adobe XMP Core 5.6-c138 79.159824, 2016/09/14-01:09:01        ">
   <rdf:RDF xmlns:rdf="http://www.w3.org/1999/02/22-rdf-syntax-ns#">
      <rdf:Description rdf:about=""/>
   </rdf:RDF>
</x:xmpmeta>
<?xpacket end="w"?></metadata>
<defs>
    <style>
      .camera {
        fill: #5e5e5e;
        fill-rule: evenodd;
      }
    </style>
  </defs>
  <path id="Camera" data-name="camera" class="camera" d="M758,561.125a2.063,2.063,0,1,0,2.1,2.062A2.081,2.081,0,0,0,758,561.125Zm5.6-2.063h-1.68a0.623,0.623,0,0,1-.553-0.391l-0.434-1.28A0.623,0.623,0,0,0,760.38,557h-4.76a0.623,0.623,0,0,0-.553.391l-0.434,1.28a0.624,0.624,0,0,1-.553.391H752.4a1.392,1.392,0,0,0-1.4,1.375v6.188A1.392,1.392,0,0,0,752.4,568h11.2a1.392,1.392,0,0,0,1.4-1.375v-6.188A1.392,1.392,0,0,0,763.6,559.062Zm-5.6,7.563a3.438,3.438,0,1,1,3.5-3.438A3.47,3.47,0,0,1,758,566.625Zm5.11-5.226a0.482,0.482,0,1,1,.49-0.482A0.486,0.486,0,0,1,763.11,561.4Z" transform="translate(-751 -557)"/>
</svg>
