<svg xmlns="http://www.w3.org/2000/svg" width="13" height="16" viewBox="0 0 13 16">
  <metadata><?xpacket begin="﻿" id="W5M0MpCehiHzreSzNTczkc9d"?>
<x:xmpmeta xmlns:x="adobe:ns:meta/" x:xmptk="Adobe XMP Core 5.6-c138 79.159824, 2016/09/14-01:09:01        ">
   <rdf:RDF xmlns:rdf="http://www.w3.org/1999/02/22-rdf-syntax-ns#">
      <rdf:Description rdf:about=""/>
   </rdf:RDF>
</x:xmpmeta>                         
<?xpacket end="w"?></metadata>
<defs>
    <style>
      .inprogress {
        fill: #5a5a5a;
        fill-rule: evenodd;
      }
    </style>
  </defs>
  <path id="hourglass" class="inprogress" d="M1098.74,503.467h-0.78V502.4h-1.3v-2.726a2.167,2.167,0,0,0-.93-1.788L1092.97,496l2.76-1.886a2.167,2.167,0,0,0,.93-1.788V489.6h1.3v-1.067h0.78a0.267,0.267,0,0,0,0-.533h-12.48a0.267,0.267,0,0,0,0,.533h0.78V489.6h1.3v2.726a2.167,2.167,0,0,0,.93,1.788l2.76,1.886-2.76,1.886a2.167,2.167,0,0,0-.93,1.788V502.4h-1.3v1.067h-0.78a0.267,0.267,0,0,0,0,.533h12.48A0.267,0.267,0,0,0,1098.74,503.467Zm-11.18-14.4v-0.534h9.88v0.534h-9.88Zm2,4.6a1.62,1.62,0,0,1-.7-1.344V489.6h7.28v2.726a1.62,1.62,0,0,1-.7,1.344l-2.94,2.009Zm-0.7,6a1.623,1.623,0,0,1,.7-1.345l2.94-2.009,2.94,2.009a1.623,1.623,0,0,1,.7,1.345V502.4h-7.28v-2.726Zm-1.3,3.259h9.88v0.534h-9.88v-0.534Zm2.58-10.15a0.552,0.552,0,0,1-.24-0.457v-0.593a0.26,0.26,0,1,0-.52,0v0.593a1.1,1.1,0,0,0,.47.9l1.21,0.824a0.234,0.234,0,0,0,.14.045,0.269,0.269,0,0,0,.22-0.119,0.272,0.272,0,0,0-.08-0.37Zm5.01,6.22-1.21-.825a0.255,0.255,0,0,0-.36.074,0.272,0.272,0,0,0,.08.37l1.2,0.824a0.552,0.552,0,0,1,.24.457V500.5a0.26,0.26,0,1,0,.52,0V499.9A1.1,1.1,0,0,0,1095.15,499Z" transform="translate(-1086 -488)"/>
</svg>
