<?xml version="1.0" encoding="utf-8"?>
<!-- Generator: Adobe Illustrator 21.0.0, SVG Export Plug-In . SVG Version: 6.00 Build 0)  -->
<svg version="1.1" id="Capa_1" xmlns="http://www.w3.org/2000/svg" xmlns:xlink="http://www.w3.org/1999/xlink" x="0px" y="0px"
	 viewBox="0 0 491.6 203.2" style="enable-background:new 0 0 491.6 203.2;" xml:space="preserve">
<style type="text/css">
	.eye_blue{fill:#3333FE;}
</style>
<path class="eye_blue" d="M250.1,143.6c-52.1,0-108.8-19-164.2-55C44.7,61.7,18.7,35,17.6,33.9C9.9,26,10.2,13.3,18.1,5.6
	C26-2,38.7-1.8,46.4,6.1l0,0c0.9,1,96,97.5,203.8,97.5c107.6,0,193-95.8,193.9-96.8c7.3-8.3,19.9-9.1,28.2-1.8
	c8.3,7.3,9.1,19.9,1.8,28.2c-1,1.1-24.8,28.1-63.9,55C357.7,124.4,302.4,143.6,250.1,143.6z"/>
<path class="eye_blue" d="M20,116.6c-4,0-8-1.2-11.5-3.7C-0.6,106.5-2.7,94,3.7,85l37.7-53.3c6.4-9,18.9-11.1,27.9-4.8
	c9,6.4,11.1,18.9,4.8,27.9l-37.7,53.3C32.4,113.6,26.3,116.6,20,116.6z"/>
<path class="eye_blue" d="M197.2,203.2c-1.2,0-2.4-0.1-3.6-0.3c-10.9-2-18.1-12.4-16.1-23.3l11.7-64c2-10.9,12.4-18.1,23.3-16.1
	c10.9,2,18.1,12.4,16.1,23.3l-11.7,64C215.1,196.5,206.7,203.2,197.2,203.2z"/>
<path class="eye_blue" d="M99,168.6c-2.8,0-5.7-0.6-8.4-1.9c-10-4.7-14.4-16.5-9.7-26.6l26.7-57.4c4.7-10,16.5-14.4,26.6-9.7
	c10,4.7,14.4,16.5,9.7,26.6L117.1,157C113.8,164.3,106.5,168.6,99,168.6z"/>
<path class="eye_blue" d="M397.4,166.6c-7.5,0-14.8-4.3-18.2-11.6l-26.7-57.4c-4.7-10-0.3-21.9,9.7-26.6c10-4.7,21.9-0.3,26.6,9.7
	l26.7,57.4c4.7,10,0.3,21.9-9.7,26.6C403.1,166,400.2,166.6,397.4,166.6z"/>
<path class="eye_blue" d="M304.7,203.2c-9.6,0-18.1-6.9-19.7-16.7l-10.7-64c-1.8-10.9,5.5-21.2,16.4-23c10.9-1.8,21.2,5.5,23,16.4
	l10.7,64c1.8,10.9-5.5,21.2-16.4,23C306.9,203.1,305.8,203.2,304.7,203.2z"/>
<path class="eye_blue" d="M471.6,117.6c-6.3,0-12.4-2.9-16.3-8.4l-37.7-53.3c-6.4-9-4.3-21.5,4.8-27.9c9-6.4,21.5-4.3,27.9,4.8L487.9,86
	c6.4,9,4.3,21.5-4.8,27.9C479.6,116.4,475.6,117.6,471.6,117.6z"/>
</svg>
