<svg xmlns="http://www.w3.org/2000/svg" viewBox="0 0 92.88 85.84">
  <defs>
    <style>
      .ClientSince-darkercolor{fill:#383838;}
      .ClientSince-primarycolor{fill:#3333fe;}
    </style>
  </defs>
  <g>
    <g>
      <path class="ClientSince-darkercolor" d="M3.28,85.84H89.6a3.24,3.24,0,0,0,3.28-3.28V9.36A3.24,3.24,0,0,0,89.6,6.08H73.36V3.28a3.28,3.28,0,1,0-6.56,0v2.8H26.64V3.28a3.28,3.28,0,0,0-6.56,0v2.8H3.28A3.25,3.25,0,0,0,0,9.36V82.64a3.28,3.28,0,0,0,3.28,3.2Zm3.28-73.2H20.08V14.4a3.28,3.28,0,1,0,6.56,0V12.64H66.8V14.4a3.28,3.28,0,1,0,6.56,0V12.64h13v8.48H6.56Zm0,15H86.32V79.36H6.56Zm0,0"/>
      <g>
        <path class="ClientSince-primarycolor" d="M22.19,63.58c3.32,2.33,3.32,2.3,7.39,5.13s4.88,2.86,9.09,0,4.21-2.86,7.39-5.13,3.61-4.17,3.61-6.9v-.81h0V27.72H18.55v29C18.58,59.44,18.86,61.28,22.19,63.58Z"/>
      </g>
    </g>
  </g>
</svg>