<?xml version="1.0" encoding="utf-8"?>
<!-- Generator: Adobe Illustrator 21.0.0, SVG Export Plug-In . SVG Version: 6.00 Build 0)  -->
<svg version="1.1" id="Calque_1" xmlns="http://www.w3.org/2000/svg" xmlns:xlink="http://www.w3.org/1999/xlink" x="0px" y="0px"
	 viewBox="0 0 22 16.3" style="enable-background:new 0 0 22 16.3;" xml:space="preserve">
<style type="text/css">
	.follow-FloattingButton{fill:#ABABAB;}
</style>
<g>
	<g>
		<path class="follow-FloattingButton" d="M5.1,7.1c0.6,0,1.2-0.3,1.7-0.7C6.3,5.5,6,4.5,6,3.5C6,2.7,6.2,2,6.6,1.3C6.1,1,5.6,0.9,5.1,0.9
			c-1.6,0-2.8,1.3-2.8,2.9C2.3,5.3,3.6,7.1,5.1,7.1z"/>
		<path class="follow-FloattingButton" d="M7,8.5C6.7,8.4,6.5,8.4,6.2,8.4H4.1C1.8,8.4,0,10.2,0,12.4l0,0.5C0,13.5,0.5,14,1.1,14h2.1
			C3.3,11.5,4.9,9.4,7,8.5z"/>
		<path class="follow-FloattingButton" d="M16.9,7.1c-0.6,0-1.2-0.3-1.7-0.7C15.7,5.5,16,4.5,16,3.5c0-0.8-0.2-1.6-0.5-2.2c0.4-0.3,0.9-0.4,1.5-0.4
			c1.6,0,2.8,1.3,2.8,2.9C19.7,5.3,18.4,7.1,16.9,7.1z"/>
		<path class="follow-FloattingButton" d="M15,8.5c0.3-0.1,0.6-0.1,0.9-0.1h2.1c2.2,0,4.1,1.8,4.1,4.1l0,0.5c0,0.6-0.5,1.1-1.1,1.1h-2.1
			C18.7,11.5,17.1,9.4,15,8.5z"/>
		<path class="follow-FloattingButton" d="M10.9,7.7c1.9,0,3.5-2.2,3.5-4.2c0-2-1.6-3.5-3.5-3.5S7.4,1.6,7.4,3.5C7.4,5.5,9,7.7,10.9,7.7z"/>
		<path class="follow-FloattingButton" d="M12.2,9.3H9.6c-2.8,0-5,2.2-5,5l0,0.6c0,0.8,0.6,1.4,1.4,1.4h9.9c0.8,0,1.4-0.6,1.4-1.4l0-0.6
			C17.2,11.5,15,9.3,12.2,9.3z"/>
	</g>
</g>
</svg>
