<?xml version="1.0" encoding="utf-8"?>
<!-- Generator: Adobe Illustrator 21.0.0, SVG Export Plug-In . SVG Version: 6.00 Build 0)  -->
<svg version="1.1" id="Calque_1" xmlns:sketch="http://www.bohemiancoding.com/sketch/ns"
	 xmlns="http://www.w3.org/2000/svg" xmlns:xlink="http://www.w3.org/1999/xlink" x="0px" y="0px" viewBox="0 0 18.3 18.3"
	 style="enable-background:new 0 0 18.3 18.3;" xml:space="preserve">
<style type="text/css">
	.google-login_color1{fill:#4285F4;}
	.google-login_color2{fill:#34A853;}
	.google-login_color3{fill:#FBBC05;}
	.google-login_color4{fill:#EA4335;}
	.google-login_color5{fill:none;}
</style>
<title>btn_google_light_normal_ios</title>
<desc>Created with Sketch.</desc>
<g id="_x39_-PATCH" transform="translate(-608.000000, -160.000000)" sketch:type="MSArtboardGroup">
</g>
<g id="logo_googleg_48dp" transform="translate(15.000000, 15.000000)" sketch:type="MSLayerGroup">
	<path id="Shape" sketch:type="MSShapeGroup" class="google-login_color1" d="M2.8-5.6c0-0.6-0.1-1.3-0.2-1.8h-8.5V-4H-1c-0.2,1.1-0.8,2.1-1.8,2.7V1
		h2.9C1.8-0.6,2.8-2.9,2.8-5.6L2.8-5.6z"/>
	<path id="Shape_1_" sketch:type="MSShapeGroup" class="google-login_color2" d="M-5.8,3.2c2.4,0,4.5-0.8,6-2.2l-2.9-2.3c-0.8,0.5-1.8,0.9-3,0.9
		c-2.3,0-4.3-1.6-5-3.7h-3v2.3C-12.4,1.1-9.4,3.2-5.8,3.2L-5.8,3.2z"/>
	<path id="Shape_2_" sketch:type="MSShapeGroup" class="google-login_color3" d="M-10.9-4.1c-0.2-0.5-0.3-1.1-0.3-1.7s0.1-1.2,0.3-1.7v-2.3h-3
		c-0.6,1.2-1,2.6-1,4s0.3,2.8,1,4L-10.9-4.1L-10.9-4.1z"/>
	<path id="Shape_3_" sketch:type="MSShapeGroup" class="google-login_color4" d="M-5.8-11.3c1.3,0,2.5,0.5,3.4,1.3l2.6-2.6c-1.6-1.5-3.6-2.3-6-2.3
		c-3.5,0-6.6,2-8,5l3,2.3C-10.2-9.7-8.2-11.3-5.8-11.3L-5.8-11.3z"/>
	<path id="Shape_4_" sketch:type="MSShapeGroup" class="google-login_color5" d="M-14.8-14.8h18v18h-18V-14.8z"/>
</g>
<g id="handles_square" sketch:type="MSLayerGroup">
</g>
</svg>
