<svg id="Groupe_3" data-name="Groupe 3" xmlns="http://www.w3.org/2000/svg" width="129.32" height="116.62" viewBox="0 0 129.32 116.62">
  <metadata><?xpacket begin="﻿" id="W5M0MpCehiHzreSzNTczkc9d"?>
<x:xmpmeta xmlns:x="adobe:ns:meta/" x:xmptk="Adobe XMP Core 5.6-c142 79.160924, 2017/07/13-01:06:39        ">
   <rdf:RDF xmlns:rdf="http://www.w3.org/1999/02/22-rdf-syntax-ns#">
      <rdf:Description rdf:about=""/>
   </rdf:RDF>
</x:xmpmeta>
<?xpacket end="w"?></metadata>
<defs>
    <style>
      .icon_ksp_2 {
        fill: #262626;
      }

      .icon_ksp_2, .icon_ksp_2_2 {
        fill-rule: evenodd;
      }

      .icon_ksp_2_2 {
        fill: #3333fe;
      }
    </style>
  </defs>
  <path id="_convert_icon" class="icon_ksp_2" d="M1024.16,1226.25l-2.95,10.83-7.73-13.38-3.14,1.81,9.9,17.14,2.47,0.65,17.26-9.97-1.8-3.11-13.48,7.78,2.85-10.46a53.053,53.053,0,0,1,61.87-30.03,51.645,51.645,0,0,1,31.78,24.24l3.14-1.81a55.207,55.207,0,0,0-33.97-25.92A56.74,56.74,0,0,0,1024.16,1226.25Zm104.63,37.67,7.73,13.38,3.13-1.81-9.89-17.14-2.47-.65-17.26,9.97,1.79,3.11,13.49-7.78-2.85,10.46a53.066,53.066,0,0,1-61.88,30.03,51.632,51.632,0,0,1-31.77-24.25l-3.14,1.82a55.207,55.207,0,0,0,33.97,25.92,56.723,56.723,0,0,0,66.19-32.24Z" transform="translate(-1010.34 -1192.19)"/>
  <path id="_people_active" class="icon_ksp_2" d="M1061.58,1248.68v-1.86a6.469,6.469,0,0,0-2.93-5.42,3.64,3.64,0,1,0-6.94,0,6.454,6.454,0,0,0-2.94,5.42v1.85a6.461,6.461,0,0,0,2.77,5.31v1.91a1,1,0,0,1-.54.89l-2.99,1.5a3.653,3.653,0,0,0-2.01,3.28v7.57a0.865,0.865,0,1,0,1.73,0v-7.2l1.41,1.42a1.9,1.9,0,0,1,.55,1.36v4.42a0.865,0.865,0,1,0,1.73,0v-4.42a3.67,3.67,0,0,0-1.06-2.59l-1.96-1.97-0.03-.03a1.978,1.978,0,0,1,.41-0.28l2.99-1.51a2.343,2.343,0,0,0,.43-0.26l2.11,2.12v8.94a0.865,0.865,0,1,0,1.73,0v-8.94l2.11-2.12a2.734,2.734,0,0,0,.43.26l0.83,0.42a0.849,0.849,0,0,0,.38.09,0.858,0.858,0,0,0,.78-0.48,0.879,0.879,0,0,0-.39-1.17l-0.82-.41a0.988,0.988,0,0,1-.55-0.89v-1.91A6.431,6.431,0,0,0,1061.58,1248.68Zm-6.4-10.29a1.91,1.91,0,0,1,1.9,1.92,1.953,1.953,0,0,1-.03.34,6.41,6.41,0,0,0-1.87-.28,6.53,6.53,0,0,0-1.88.28,1.953,1.953,0,0,1-.03-0.34A1.918,1.918,0,0,1,1055.18,1238.39Zm0,3.72a4.7,4.7,0,0,1,4.68,4.71v0.31a5.415,5.415,0,0,1-5.84-1.77,0.868,0.868,0,0,0-.63-0.34,0.844,0.844,0,0,0-.67.25,5.592,5.592,0,0,1-2.22,1.42A4.7,4.7,0,0,1,1055.18,1242.11Zm0,16.49-2-2.01a2.687,2.687,0,0,0,.09-0.7v-1.06a6.4,6.4,0,0,0,3.81,0v1.06a3.193,3.193,0,0,0,.09.7Zm0-5.22a4.7,4.7,0,0,1-4.68-4.71v-0.18a6.841,6.841,0,0,0,2.78-1.39,7.534,7.534,0,0,0,1.6,1.18,6.888,6.888,0,0,0,3.3.85,7.23,7.23,0,0,0,1.67-.2A4.7,4.7,0,0,1,1055.18,1253.38Zm47.81,3.04-4.84-2.43a1,1,0,0,1-.54-0.89v-1.23a5.515,5.515,0,0,0,1.85-4.12v-0.99h0.06a0.869,0.869,0,0,0,.86-0.87v-1.86a5.5,5.5,0,0,0-5.48-5.52h-1.85a5.5,5.5,0,0,0-5.48,5.52v1.86a0.862,0.862,0,0,0,.86.87,0.176,0.176,0,0,0,.06-0.01v1a5.515,5.515,0,0,0,1.85,4.12v1.23a1,1,0,0,1-.54.89,0.871,0.871,0,0,0,.38,1.65,0.924,0.924,0,0,0,.39-0.09,3.865,3.865,0,0,0,.43-0.27l2.11,2.12v11.73a0.865,0.865,0,1,0,1.73,0V1257.4l2.11-2.12a3.121,3.121,0,0,0,.43.27l4.68,2.35-1.42,1.43a3.628,3.628,0,0,0-1.06,2.59v7.21a0.86,0.86,0,1,0,1.72,0v-7.21a1.9,1.9,0,0,1,.56-1.36l1.35-1.35a1.935,1.935,0,0,1,.06.49v9.43a0.865,0.865,0,1,0,1.73,0v-9.43A3.653,3.653,0,0,0,1102.99,1256.42Zm-13.69-11.58v-0.81h0a3.764,3.764,0,0,1,3.75-3.78h1.85a3.764,3.764,0,0,1,3.75,3.78v0.96a13.006,13.006,0,0,1-6.04-1.69,0.861,0.861,0,0,0-.48-0.14,0.822,0.822,0,0,0-.61.25A5.829,5.829,0,0,1,1089.3,1244.84Zm4.67,10.97-1.99-2.01a2.687,2.687,0,0,0,.09-0.7v-0.18a5.426,5.426,0,0,0,1.9.34,5.482,5.482,0,0,0,1.91-.34v0.18a2.687,2.687,0,0,0,.09.7Zm0-4.29a3.762,3.762,0,0,1-3.75-3.77v-1.41h0a7.289,7.289,0,0,0,2.03-1.24,15.54,15.54,0,0,0,5.48,1.57v1.08A3.771,3.771,0,0,1,1093.97,1251.52Z" transform="translate(-1010.34 -1192.19)"/>
  <path id="_people_active-2" data-name="_people_active" class="icon_ksp_2_2" d="M1085.66,1253.41l-5.02-2.25a0.991,0.991,0,0,1-.58-0.9v-1.39a7.389,7.389,0,0,0,2.77-5.77v-1.96a1.784,1.784,0,0,0,.92-1.57v-0.19a7.358,7.358,0,0,0-7.33-7.38h-1.84a7.358,7.358,0,0,0-7.33,7.38v1.72a1.817,1.817,0,0,0,.69,1.46,1.135,1.135,0,0,0,.23.15v0.39a7.389,7.389,0,0,0,2.77,5.77v1.39a0.991,0.991,0,0,1-.58.9l-5.03,2.25a4.586,4.586,0,0,0-2.7,4.19v11.53a0.865,0.865,0,1,0,1.73,0V1257.6c0-.1,0-0.2.01-0.3l2.32,2.33a1.9,1.9,0,0,1,.56,1.36v8.14a0.86,0.86,0,1,0,1.72,0v-8.14a3.628,3.628,0,0,0-1.06-2.59l-2.76-2.78a2.794,2.794,0,0,1,.89-0.62l4.93-2.21,3.67,3.68v12.66a0.86,0.86,0,1,0,1.72,0v-12.66l3.67-3.68,4.93,2.21a2.794,2.794,0,0,1,.89.62l-2.76,2.78a3.628,3.628,0,0,0-1.06,2.59v8.14a0.86,0.86,0,1,0,1.72,0v-8.14a1.9,1.9,0,0,1,.56-1.36l2.32-2.33c0.01,0.1.01,0.2,0.01,0.3v11.53a0.865,0.865,0,1,0,1.73,0V1257.6A4.579,4.579,0,0,0,1085.66,1253.41Zm-10.16,1.47-3.21-3.23a2.759,2.759,0,0,0,.38-1.39v-0.36a7.31,7.31,0,0,0,5.66,0v0.36a2.759,2.759,0,0,0,.38,1.39Zm0-6.15a5.616,5.616,0,0,1-5.6-5.63v-0.39a5.244,5.244,0,0,0,1.57-1.03,0.87,0.87,0,0,0-1.18-1.28,3.083,3.083,0,0,1-1.28.77,0.031,0.031,0,0,1-.02.01,0.155,0.155,0,0,1-.02-0.08v-1.72a5.634,5.634,0,0,1,5.61-5.64h1.84a5.634,5.634,0,0,1,5.61,5.64v0.19a0.046,0.046,0,0,1-.04.05c-5.18,1.03-7.77-.91-8.65-1.79a0.857,0.857,0,0,0-1.22,0,0.869,0.869,0,0,0,0,1.23c2.68,2.7,6.6,2.75,8.98,2.46v1.58A5.616,5.616,0,0,1,1075.5,1248.73Z" transform="translate(-1010.34 -1192.19)"/>
</svg>
