<svg id="Groupe_4" data-name="Groupe 4" xmlns="http://www.w3.org/2000/svg" width="126" height="126" viewBox="0 0 126 126">
  <metadata><?xpacket begin="﻿" id="W5M0MpCehiHzreSzNTczkc9d"?>
<x:xmpmeta xmlns:x="adobe:ns:meta/" x:xmptk="Adobe XMP Core 5.6-c142 79.160924, 2017/07/13-01:06:39        ">
   <rdf:RDF xmlns:rdf="http://www.w3.org/1999/02/22-rdf-syntax-ns#">
      <rdf:Description rdf:about=""/>
   </rdf:RDF>
</x:xmpmeta>
<?xpacket end="w"?></metadata>
<defs>
    <style>
      .icon_ksp_3 {
        fill: none;
        stroke: #262626;
        stroke-width: 3px;
      }

      .icon_ksp_3_2, .icon_ksp_3_3 {
        fill: #3333fe;
      }

      .icon_ksp_3_2, .icon_ksp_3_3, .icon_ksp_3_4 {
        fill-rule: evenodd;
      }

      .icon_ksp_3_3 {
        opacity: 0.25;
      }
    </style>
  </defs>
  <circle id="_circle" class="icon_ksp_3" cx="63" cy="63" r="61.5"/>
  <path id="_lines" class="icon_ksp_3_2" d="M1445.56,1235.23h-5.14a1.02,1.02,0,1,0,0,2.04h5.14A1.02,1.02,0,1,0,1445.56,1235.23Zm0,7.12h-10.29a1.015,1.015,0,1,0,0,2.03h10.29A1.015,1.015,0,1,0,1445.56,1242.35Zm0,7.12h-15.43a1.015,1.015,0,1,0,0,2.03h15.43A1.015,1.015,0,1,0,1445.56,1249.47Zm0,7.11h-19.54a1.02,1.02,0,1,0,0,2.04h19.54A1.02,1.02,0,1,0,1445.56,1256.58Zm0,7.12h-13.37a1.015,1.015,0,1,0,0,2.03h13.37A1.015,1.015,0,1,0,1445.56,1263.7Zm0,7.12h-7.2a1.015,1.015,0,1,0,0,2.03h7.2A1.015,1.015,0,1,0,1445.56,1270.82Z" transform="translate(-1391.5 -1191.5)"/>
  <path id="_quarter_circle" class="icon_ksp_3_3" d="M1454,1256h27a26.639,26.639,0,0,0-27-27v27Z" transform="translate(-1391.5 -1191.5)"/>
  <path id="Forma_1" data-name="Forma 1" class="icon_ksp_3_4" d="M1455.68,1259.62a3.675,3.675,0,0,0,2.68-1.48l9.63-13.16a1.02,1.02,0,0,0-.11-1.32,1.044,1.044,0,0,0-1.33-.1l-13.31,9.52a3.6,3.6,0,0,0-.44,5.49,3.688,3.688,0,0,0,2.59,1.06A2.81,2.81,0,0,0,1455.68,1259.62Zm-1.89-3.73a1.6,1.6,0,0,1,.65-1.16l8.13-5.81-5.88,8.02a1.557,1.557,0,0,1-1.17.65,1.624,1.624,0,0,1-1.27-.46A1.548,1.548,0,0,1,1453.79,1255.89Zm24.92-15a0.637,0.637,0,0,1-.02-0.07c-0.01-.02-0.03-0.03-0.04-0.05a27.774,27.774,0,0,0-3.67-4.89l2.21-2.18,1.45,1.44,4.37-4.31-4.37-4.32-4.36,4.32,1.46,1.43-2.21,2.19a28.13,28.13,0,0,0-4.95-3.63c-0.02-.01-0.03-0.03-0.05-0.04a0.363,0.363,0,0,1-.07-0.03,27.927,27.927,0,0,0-10.56-3.46v-1.21h1.54a2.54,2.54,0,1,0,0-5.08h-9.25a2.54,2.54,0,1,0,0,5.08h1.54v1.18a29.052,29.052,0,0,0-3.32.54,1.016,1.016,0,1,0,.46,1.98,27.975,27.975,0,0,1,2.86-.48l1.1-.09c0.34-.02.65-0.04,0.95-0.05v2.01a1.03,1.03,0,0,0,2.06,0v-2.01a25.777,25.777,0,0,1,10.75,2.9l-1.01,1.73a1.008,1.008,0,0,0,.38,1.39,1.021,1.021,0,0,0,1.4-.37l1.01-1.73a25.638,25.638,0,0,1,7.99,7.9l-1.75,1a1,1,0,0,0-.37,1.39,1.049,1.049,0,0,0,1.4.37l1.76-1a25.111,25.111,0,0,1,2.93,10.79h-2.03a1.02,1.02,0,1,0,0,2.04h2.03a25.111,25.111,0,0,1-2.93,10.79l-1.76-1a1.025,1.025,0,0,0-1.4.37,1.008,1.008,0,0,0,.38,1.39l1.75,1a25.778,25.778,0,0,1-8,7.9l-1.01-1.73a1.026,1.026,0,0,0-1.78,1.02l1.02,1.73a25.663,25.663,0,0,1-10.76,2.89v-2a1.025,1.025,0,0,0-2.05,0v2.01a25.49,25.49,0,0,1-4.91-.63,1.021,1.021,0,1,0-.46,1.99,28.537,28.537,0,0,0,6.23.7h0.16c0.01,0,.02-0.01.03-0.01a27.769,27.769,0,0,0,13.59-3.63,0.418,0.418,0,0,0,.1-0.04c0.02-.01.03-0.03,0.05-0.04a27.889,27.889,0,0,0,10.05-9.93,0.276,0.276,0,0,0,.06-0.08c0.01-.02.01-0.04,0.02-0.06A27.066,27.066,0,0,0,1478.71,1240.89Zm-0.07-11.5,1.46,1.44-1.46,1.43-1.45-1.43Zm-24.86-2.27v-3.07h-3.59a0.51,0.51,0,1,1,0-1.02h9.25a0.51,0.51,0,0,1,0,1.02h-3.6v3.07c-0.36-.01-0.7-0.02-1.03-0.02h-0.16c-0.17,0-.34.01-0.51,0.01C1454.02,1227.12,1453.91,1227.12,1453.78,1227.12Z" transform="translate(-1391.5 -1191.5)"/>
</svg>
