<svg xmlns="http://www.w3.org/2000/svg" viewBox="0 0 97 97"><defs><style>.cls-1,.cls-2{fill:#eee;}.cls-2{opacity:0.2;}</style></defs><title>_icon_smart_local</title><g id="Calque_2" data-name="Calque 2"><g id="Calque_1-2" data-name="Calque 1"><g id="_icon_smart_local"><path class="cls-1" d="M48.5,4A44.5,44.5,0,1,1,4,48.5,44.55,44.55,0,0,1,48.5,4m0-4A48.5,48.5,0,1,0,97,48.5,48.49,48.49,0,0,0,48.5,0Z"/><g id="_Map"><path class="cls-1" d="M22.84,84.82c-.68-.48-1.34-1-2-1.49"/><path class="cls-1" d="M49.57,93c-.36,0-.71,0-1.07,0s-.81,0-1.21,0l1.47.49Z"/><path class="cls-2" d="M85.69,72.9c.35-.54.7-1.09,1-1.64a.87.87,0,0,0-.78-.13l-3.81,2.29-9.61-5.75,6.38,1.09H79a.39.39,0,0,0,.28-.09.29.29,0,0,0,0-.35l-3.43-5.46,7.87,1c.67.08.77-.51.52-.94a3.56,3.56,0,0,0-1.93-1.31l-5.62-.59-6-4,7.72-.2c.23,0,.32-.13.21-.28a.88.88,0,0,0-.62-.26l-18.29.52-1-.65L82.09,54c.21,0,.27-.15.14-.28a.8.8,0,0,0-.59-.2l-16.92,1.6-4.7-2,22.12-3.8c.18,0,.22-.15.09-.25a.76.76,0,0,0-.55-.14L63.32,52l-2.78-.81C62.18,51,73.11,49.13,75,48.88c.18,0,.23-.13.13-.24a.74.74,0,0,0-.52-.14c-1.68.23-13,2.15-15.2,2.45h0c-6.6.9-14.36,1.95-14.81,2-.2,0-.35.11-.35.22s.17.23.38.23,5.36-.71,15-2l2.81.83L59,52.74,45.23,55,33,50.05a.83.83,0,0,0-.86,0c-.32.2-.1.26.22.39l11.39,5.34-.65.46H34l3.32-3.07c.12-.12.07-.25-.12-.31a.63.63,0,0,0-.54.1l-2.37,2.15-5.89-.25,2.43-1.49c.16-.1.18-.24,0-.31a.66.66,0,0,0-.56,0L27.41,54.8l-3.25-.14H24.1l-4.18.17L24.67,53c.21-.08.3-.22.21-.31a.56.56,0,0,0-.53,0l-5.81,2.26-11,.44a.82.82,0,0,0-.59.27c-.09.13,0,.24.26.23l16.69-.68,9.84.42-.69.64H27L19,58,5.45,56.79a.88.88,0,0,0-.62.22c0,.11,0,.22.06.33h0l11.49,1-4,2.13-3.62.41a3.43,3.43,0,0,0-1.87,1.28c-.21.37-.31,1.05.21,1.05H7.3L42,58.32l2.3,1.51L8.16,67.25c.34.73.69,1.44,1.06,2.14l.09-.24,16.06-3.58,2.42,1.05L21.9,70.13l-.1.07-4.58-1.47a.82.82,0,0,0-.48,0L10.25,71.2c.14.25.3.5.45.75l1.46-.53,8.52,4.23L17,78.8l-.93.1c.35.37.69.74,1.05,1.09a1.32,1.32,0,0,0,.34-.2L33.77,65.61l10.81,3.48-1.45,2.29L33,69.33a.74.74,0,0,0-.66.21l-12.41,13,.92.74,7.9-8.52,3.58.92-7.88,9.63-1.62-.54a44.28,44.28,0,0,0,8.09,4.56l6,2.07.06,0A45,45,0,0,0,47.29,93l-8.51-2.84,5.66-11.26,2.34.61,1.47,1.38L45.7,87A.87.87,0,0,0,46,88.05l5.82,3.56L49.57,93c1.38,0,2.74-.12,4.09-.28l.26-.16a.57.57,0,0,0,.13-.08l4.29-2.65a.57.57,0,0,0,.18-.12l8.08-5,3.25,2.84L71,86.85,67.7,84l6.69-4.13,3.27,2.19c.81-.7,1.59-1.42,2.34-2.17l-2.83-1.74ZM13.88,60.29l3.5-1.87,1.3.11,5.24.61Zm28-3.22L26.69,58.82l-6-.69L27,56.74h15.4Zm26.27,9.07L66,63.05l5.85.78,2.27,3.31ZM61.9,62.51l3,.4,2.08,3-2.88-.49C63.35,64.5,62.37,63.21,61.9,62.51Zm1,2.73-2.67-.45L57.81,62l3,.4C61.21,63,62.22,64.4,62.86,65.24Zm15,2.54-2.55-.43-2.72-3.87a.91.91,0,0,0-.58-.32l-6.9-.9h0l-7.95-1-.72-.86,18.35,2.37Zm-8.1-10.69,5.65,3.82-6.31-.66-4.4-3ZM59.18,53.2l4.54,2L58,55.72l-2.81-1.86ZM54.44,54l4.29,2.88-5.94.19-2.71-2.35Zm-8.57,2a.44.44,0,0,0,.21-.45.45.45,0,0,0-.11-.17l3.31-.55,2.54,2.25-7.74.23Zm-1.69,1.87,19.57-.61,4.08,2.85L52,58.46a1.24,1.24,0,0,0-.43,0l-5,.9ZM21.78,74.71l-8.06-3.9,2.9-1.14,8,2.61Zm3.86-3.28-2.78-.89L29,66.81a.53.53,0,0,0,.28-.36.31.31,0,0,0-.2-.31l-2.17-.92,3.33-.74,2.6.84Zm.12,14.37L33.52,76l4,1-7,10.28Zm11.57,3.85-5.49-1.83,6.9-10.43,4.42,1.15Zm-3.65-14.8a.47.47,0,0,0-.17,0l-3.84-1,3.26-3.52,10.34,2.14a.64.64,0,0,0,.66-.27l1.69-2.75,5.5,1.77,3.6,3.14L47,78.23ZM53.45,90.64,47.33,87l2-5.11,7.29,6.86ZM57.92,88l-9.71-8.9,7.5-3.86,9.57,8.34Zm8.46-5.08L51.8,70.47a.76.76,0,0,0-.23-.13l-19.7-6.22L46.05,61,73,78.93Zm-18-22.38L52,59.8l3.3.43,4.15,5a.71.71,0,0,0,.43.24l10.57,1.81,10.83,6.59-5.6,3.36Z"/></g><g id="_Pin"><path class="cls-1" d="M46,60.19l-.35-.33C36,50.71,37,45.67,37.05,45.46v0A9,9,0,0,1,55,45.87a8.79,8.79,0,0,1-1.12,4.28c-1.35,3-3.9,6.23-7.56,9.71ZM38,46.07c0,1.28.65,5.66,8,12.74a32.09,32.09,0,0,0,7-9.11,7.78,7.78,0,0,0,1-3.83,8,8,0,0,0-16-.28ZM46,48a3,3,0,1,1,3-3A3,3,0,0,1,46,48Zm0-5a2,2,0,1,0,2,2A2,2,0,0,0,46,43Z"/></g></g></g></g></svg>