<?xml version="1.0" encoding="utf-8"?>
<!-- Generator: Adobe Illustrator 21.0.0, SVG Export Plug-In . SVG Version: 6.00 Build 0)  -->
<svg version="1.1" id="Calque_1" xmlns="http://www.w3.org/2000/svg" xmlns:xlink="http://www.w3.org/1999/xlink" x="0px" y="0px"
	 viewBox="0 0 25.4 32" style="enable-background:new 0 0 25.4 32;" xml:space="preserve">
<style type="text/css">
	.qs-header-cnx{fill:#FFFFFF;}
</style>
<g>
	<g>
		<path class="qs-header-cnx" d="M12.8,16.5c-4.6,0-8.2-3.7-8.2-8.2S8.2,0,12.8,0S21,3.7,21,8.2S17.1,16.5,12.8,16.5z M12.8,3.9
			c-2.3,0-4.3,1.8-4.3,4.3s1.8,4.3,4.3,4.3s4.3-1.8,4.3-4.3S15.1,3.9,12.8,3.9z"/>
	</g>
	<path class="qs-header-cnx" d="M23.5,32c-1.1,0-2.1-0.9-2.1-2.1c0-3.9-3.2-7.1-7.1-7.1H11c-3.9,0-7.1,3.2-7.1,7.1C3.9,31.1,3,32,1.8,32
		S0,31.1,0,29.9C0,24,5,19,11,19h3.4c5.9,0,11,5,11,11C25.4,31.1,24.5,32,23.5,32z"/>
</g>
</svg>
