<svg xmlns="http://www.w3.org/2000/svg" viewBox="0 0 409.6 268.51"><defs><style>mail_icn-darker{fill:#383838;}</style></defs><title>Fichier 1</title><g id="Calque_2" data-name="Calque 2"><g id="Calque_1-2" data-name="Calque 1"><path class="mail_icn-darker" d="M409.59,34a33.53,33.53,0,0,0-9-22.69c-.09-.12-.11-.26-.21-.38s-.22-.15-.32-.25A34.4,34.4,0,0,0,375.18,0H34.43A34.45,34.45,0,0,0,9.48,10.7c-.09.1-.23.14-.32.25s-.12.26-.21.38A33.54,33.54,0,0,0,0,34V234.49a33.58,33.58,0,0,0,9.34,23.14c.11.13.15.29.28.41s.09,0,.13.09a34.46,34.46,0,0,0,24.67,10.38H375.18a34.45,34.45,0,0,0,24.67-10.39s.09,0,.13-.08.16-.27.27-.39a33.59,33.59,0,0,0,9.35-23.15V34ZM275.53,123.66l118-97.88A19.57,19.57,0,0,1,395.41,34V234.49a19.69,19.69,0,0,1-1.5,7.5ZM375.18,14a20.23,20.23,0,0,1,8.32,1.82L204.8,164,26.1,15.84A20.32,20.32,0,0,1,34.43,14ZM15.7,242a19.66,19.66,0,0,1-1.5-7.5V34A19.66,19.66,0,0,1,16,25.79l118,97.88Zm18.73,12.5a20.19,20.19,0,0,1-9.07-2.22L145,132.69l55.27,45.83a7.13,7.13,0,0,0,9.11,0l55.27-45.83L384.24,252.26a20.16,20.16,0,0,1-9.07,2.22Zm0,0"/></g></g></svg>