<svg xmlns="http://www.w3.org/2000/svg" viewBox="0 0 232.1 409.6"><defs><style>.phone_icn-darker{fill:#383838;}</style></defs><title>phone_icnFichier 1</title><g id="Calque_2" data-name="Calque 2"><g id="Calque_1-2" data-name="Calque 1"><path class="phone_icn-darker" d="M202,0h-172A30.11,30.11,0,0,0,0,30.07V379.52A30.12,30.12,0,0,0,30.07,409.6H202a30.12,30.12,0,0,0,30.08-30.08V30.07A30.11,30.11,0,0,0,202,0ZM13.65,54.61h204.8V314H13.65Zm16.42-41H202a16.44,16.44,0,0,1,16.43,16.42V41H13.65V30.07A16.44,16.44,0,0,1,30.07,13.65ZM202,395.95h-172a16.44,16.44,0,0,1-16.42-16.42V327.68h204.8v51.85A16.44,16.44,0,0,1,202,395.95Zm0,0"/><path class="cls-1" d="M116.05,334.51a27.31,27.31,0,1,0,27.3,27.3,27.33,27.33,0,0,0-27.3-27.3Zm0,41a13.65,13.65,0,1,1,13.65-13.65,13.67,13.67,0,0,1-13.65,13.65Zm0,0"/><path class="cls-1" d="M88.75,34.13h27.31a6.83,6.83,0,0,0,0-13.65H88.75a6.83,6.83,0,0,0,0,13.65Zm0,0"/><path class="cls-1" d="M136.53,34.13h6.82a6.83,6.83,0,1,0,0-13.65h-6.82a6.83,6.83,0,1,0,0,13.65Zm0,0"/></g></g></svg>