<svg xmlns="http://www.w3.org/2000/svg" viewBox="0 0 511.99 511.98"><g id="Calque_2" data-name="Calque 2"><g id="Layer_1" data-name="Layer 1"><path fill="#5E5E5E" d="M511.39,82.56a10.67,10.67,0,0,0-8.89-7.08l-45.87-5.09a10.66,10.66,0,0,0-15-15L436.5,9.48a10.68,10.68,0,0,0-18.16-6.36L349.07,72.41A234.31,234.31,0,1,0,450.88,186a236.89,236.89,0,0,0-11.3-23.06l69.28-69.29A10.68,10.68,0,0,0,511.39,82.56ZM417.75,33.9l3.92,35.31c-10.34,4.28-28.11,16.2-63.45,46.76l2.48-25ZM294.68,255.14a64,64,0,1,1-37.84-37.84v22.76l-29.73,29.72a10.67,10.67,0,1,0,15.09,15.09l29.73-29.73Zm-26.54-56.29a85.38,85.38,0,1,0,45,45c8.36-8.68,22.59-23.57,38.56-40.8a137.87,137.87,0,0,1,21.62,74.29c0,76.47-62.2,138.67-138.66,138.67S96,353.79,96,277.32s62.2-138.66,138.66-138.66a137.82,137.82,0,0,1,74.29,21.63C291.72,176.26,276.84,190.48,268.14,198.85Zm88.14-32.42c-27.11,30-54.12,58.1-63.12,67.38h-15v-15c9.27-9,37.33-36,67.33-63.08,33.36-30.12,54-46.79,66.76-56C403.05,112.43,386.39,133.11,356.28,166.42ZM385.5,428.18A213.33,213.33,0,0,1,83.81,126.48,213.59,213.59,0,0,1,339.24,91.3l-4.5,45.43-1.52,1.36-8,7.28a160,160,0,1,0,41.43,41.43c2.88-3.16,5.77-6.34,8.64-9.55l45.44-4.5A213.59,213.59,0,0,1,385.5,428.18ZM421,151.27,396,153.75c12.59-14.58,22.8-27.07,30.42-37.26,6.81-9.11,11.56-16.33,14.53-22.11.48-.94,1.2-2.35,1.91-4.06l35.25,3.92Z"/></g></g></svg>