<svg xmlns="http://www.w3.org/2000/svg" viewBox="0 0 316.33 317.46"><g fill="#5E5E5E" id="Calque_1-2" data-name="Calque 1"><path d="M315.1,6.44a6,6,0,0,0-5.22-5.21A163.9,163.9,0,0,0,173.86,48l-40,40L76.16,95.42a6,6,0,0,0-3.48,1.71L17,152.78a6,6,0,0,0,3.15,10.14l42.08,7.79L70.53,179l-17.6,9.53A6,6,0,0,0,51.54,198l66.75,66.75a6,6,0,0,0,4.24,1.76,5.85,5.85,0,0,0,.86-.06,6,6,0,0,0,4.41-3.08l9.53-17.6,8.27,8.27,7.79,42.08a6,6,0,0,0,10.15,3.15l55.65-55.65a6,6,0,0,0,1.71-3.47l7.45-57.72,40-40a164.91,164.91,0,0,0,39.1-62.6A164.92,164.92,0,0,0,315.1,6.44ZM63.17,158.68,33.58,153.2l46.14-46.14L120,101.87Zm57.91,91.93L65.71,195.24l13.67-7.4,49.11,49.11Zm88.18-14-46.14,46.14-5.48-29.59,56.81-56.81ZM259.85,134,151.17,242.66l-77.5-77.5L182.35,56.48a152.77,152.77,0,0,1,56.23-35.59,71.79,71.79,0,0,0,56.86,56.86A152.82,152.82,0,0,1,259.85,134Zm39.2-67.76A59.86,59.86,0,0,1,250.1,17.27a153.09,153.09,0,0,1,53.59-4.64,153.07,153.07,0,0,1-4.65,53.59Zm0,0"/><path d="M176.5,88.35a36.4,36.4,0,1,0,51.48,0,36.43,36.43,0,0,0-51.48,0Zm43,43a24.39,24.39,0,1,1,0-34.51,24.43,24.43,0,0,1,0,34.51Zm0,0"/><path d="M78.12,239.33a6,6,0,0,0-8.48,0L18.16,290.81a6,6,0,1,0,8.48,8.48l51.48-51.48a6,6,0,0,0,0-8.48Zm0,0"/><path d="M86,255.74,62.85,278.93a6,6,0,0,0,8.49,8.48l23.19-23.19A6,6,0,0,0,86,255.74Zm0,0"/><path d="M54.73,289.53a6,6,0,1,0,5.54,3.7,6.06,6.06,0,0,0-5.54-3.7Zm0,0"/><path d="M60.27,293.24c.15.36-.14-.36,0,0Zm0,0"/><path d="M37.76,304l-3.19,3.2a6,6,0,0,0,8.49,8.49l3.19-3.19A6,6,0,0,0,37.76,304Zm0,0"/><path d="M33.44,251.21a6,6,0,0,0-8.49,0L1.76,274.4a6,6,0,0,0,8.48,8.49l23.2-23.2a6,6,0,0,0,0-8.48Zm0,0"/><path d="M43,248.91a6,6,0,1,0-6.46-2.51c-.05-.08-.09-.12,0,0s.07.09,0,0A6.08,6.08,0,0,0,43,248.91Zm0,0"/><path d="M58.53,234.6l3.19-3.2a6,6,0,1,0-8.48-8.48L50,226.12a6,6,0,1,0,8.48,8.49Zm0,0"/></g></svg>