<?xml version="1.0" encoding="utf-8"?>
<!-- Generator: Adobe Illustrator 21.0.0, SVG Export Plug-In . SVG Version: 6.00 Build 0)  -->
<svg version="1.1" id="Capa_1" xmlns="http://www.w3.org/2000/svg" xmlns:xlink="http://www.w3.org/1999/xlink" x="0px" y="0px"
	 viewBox="0 0 492.6 492.6" style="enable-background:new 0 0 492.6 492.6;" xml:space="preserve">
<style type="text/css">
	.pwdlogin-grey{fill:#5E5E5E;}
</style>
<path class="pwdlogin-grey" d="M488.1,230.7l-27.5-38.8c8.5-8.1,13.2-13.5,13.6-14c7.3-8.3,6.5-20.9-1.8-28.2c-8.3-7.3-20.9-6.5-28.2,1.8
	c-0.3,0.3-8.2,9.2-22,21.4c-0.9,0.7-1.8,1.4-2.6,2.2c-14,12.2-33.4,27.1-56.6,40.4c-0.1,0.1-0.3,0.1-0.4,0.2c-1.1,0.5-2.1,1.1-3,1.8
	c-31,17.1-68.5,30.8-109.1,30.8c-11.7,0-23.2-1.1-34.5-3.2c-1-0.4-2.1-0.7-3.2-0.9c-0.9-0.2-1.9-0.3-2.8-0.3
	c-90-18.8-162.5-92.3-163.3-93.2c-7.7-7.9-20.3-8.1-28.3-0.4c-7.9,7.7-8.1,20.3-0.5,28.3c0.4,0.5,5.1,5.3,13.3,12.6L3.9,229.7
	c-6.4,9-4.3,21.5,4.8,27.9c3.5,2.5,7.5,3.7,11.5,3.7c6.3,0,12.4-2.9,16.3-8.4l25.7-36.3c7.2,5.4,15.2,11,23.9,16.7
	c4.9,3.2,9.8,6.2,14.6,9.1l-19.7,42.5c-4.7,10-0.3,21.9,9.7,26.6c2.7,1.3,5.6,1.9,8.4,1.9c7.5,0,14.8-4.3,18.2-11.6l18.9-40.7
	c16.7,7.7,33.3,13.8,49.7,18.2l-8.2,45.1c-2,10.9,5.2,21.3,16.1,23.3c1.2,0.2,2.4,0.3,3.6,0.3c9.5,0,17.9-6.8,19.7-16.4l8.2-44.7
	c8.5,0.9,16.9,1.4,25.1,1.4c9,0,18.2-0.6,27.4-1.7l7.5,44.7c1.6,9.8,10.1,16.7,19.7,16.7c1.1,0,2.2-0.1,3.3-0.3
	c10.9-1.8,18.2-12.1,16.4-23l-7.7-46.2c14.9-4.3,29.8-10,44.7-17.1l17.8,38.4c3.4,7.3,10.6,11.6,18.2,11.6c2.8,0,5.7-0.6,8.4-1.9
	c10-4.7,14.4-16.5,9.7-26.6l-19-40.9c4.6-2.9,9.1-5.9,13.6-9c7.2-4.9,13.8-9.9,19.9-14.7l25.2,35.6c3.9,5.5,10.1,8.4,16.3,8.4
	c4,0,8-1.2,11.5-3.7C492.3,252.2,494.5,239.7,488.1,230.7z"/>
</svg>
