<svg xmlns="http://www.w3.org/2000/svg" width="11" height="11" viewBox="0 0 11 11">
  <metadata><?xpacket begin="﻿" id="W5M0MpCehiHzreSzNTczkc9d"?>
<x:xmpmeta xmlns:x="adobe:ns:meta/" x:xmptk="Adobe XMP Core 5.6-c138 79.159824, 2016/09/14-01:09:01        ">
   <rdf:RDF xmlns:rdf="http://www.w3.org/1999/02/22-rdf-syntax-ns#">
      <rdf:Description rdf:about=""/>
   </rdf:RDF>
</x:xmpmeta>
                                                                                                    
                                                                                                    
                                                                                                    
                                                                                                    
                                                                                                    
                                                                                                    
                                                                                                    
                                                                                                    
                                                                                                    
                                                                                                    
                                                                                                    
                                                                                                    
                                                                                                    
                                                                                                    
                                                                                                    
                                                                                                    
                                                                                                    
                                                                                                    
                                                                                                    
                                                                                                    
                           
<?xpacket end="w"?></metadata>
<defs>
    <style>
      .cls-1 {
        fill: #5a5a5a;
        fill-rule: evenodd;
      }
    </style>
  </defs>
  <path id="Forme_983" data-name="Forme 983" class="cls-1" d="M467,824.5a5.5,5.5,0,1,1,5.5,5.5A5.5,5.5,0,0,1,467,824.5Zm10.522,0a5.022,5.022,0,1,0-5.022,5.022A5.022,5.022,0,0,0,477.522,824.5Zm-5.42,1.853h0.7v0.729h-0.7v-0.729Zm-0.753-4.023a1.734,1.734,0,0,1,2.279-.066,1.329,1.329,0,0,1,.415,1.007,1.073,1.073,0,0,1-.153.6,4.765,4.765,0,0,1-.614.68,1.945,1.945,0,0,0-.436.551,1.716,1.716,0,0,0-.1.668h-0.624a2.286,2.286,0,0,1,.119-0.808,2.2,2.2,0,0,1,.522-0.7l0.28-.277a1.133,1.133,0,0,0,.2-0.249,0.89,0.89,0,0,0,.14-0.472,0.92,0.92,0,0,0-.2-0.6,1,1,0,0,0-1.487.182,1.691,1.691,0,0,0-.144.7h-0.623a1.718,1.718,0,0,1,.427-1.217h0Z" transform="translate(-467 -819)"/>
</svg>
