<svg xmlns="http://www.w3.org/2000/svg" viewBox="0 0 332.47 145.05"><defs><style>.cls-1,.cls-3{fill:#3333fe;}.cls-2{fill:#fff;}.cls-3{font-size:18px;font-family:Montserrat-Light, Montserrat;}.cls-4{letter-spacing:-0.05em;}.cls-5{letter-spacing:-0.03em;}.cls-6{letter-spacing:-0.02em;}.cls-7{letter-spacing:-0.01em;}</style></defs><title>_bookmark_default_logo_baseline_down</title><g id="Calque_2" data-name="Calque 2"><g id="_Logos"><g id="_down_bookmark_logo"><g id="_bookmark"><path class="cls-1" d="M103,97.34V0H0V94.59l0,0v2.71c0,9.27,1.4,15.65,12,23.24s10.59,7.59,24.47,17.26,16.56,9.54,30.07,0S80,128.38,91,120.58,103,106.61,103,97.34Z"/></g><path id="_logo" class="cls-2" d="M65.48,79.84a1,1,0,0,0-.66-.24h-31A9.76,9.76,0,0,1,24,69.84V46.06a12.26,12.26,0,0,1,5-9.86L44.25,24.94a12.26,12.26,0,0,1,14.56,0L74.07,36.2a12.26,12.26,0,0,1,5,9.86V66.83a.59.59,0,0,1-1,.45l-8.4-7.12A1.85,1.85,0,0,1,69,58.75V46.31a2.73,2.73,0,0,0-1.11-2.2L52.86,33a2.23,2.23,0,0,0-2.66,0L35.13,44.11A2.73,2.73,0,0,0,34,46.31v21a2.24,2.24,0,0,0,2.24,2.24H66.15a2.22,2.22,0,0,1,1.41.51l7.55,6.23s3.67,3.09,7.38,6.2a.23.23,0,0,0,.32,0A17,17,0,0,0,87.32,71V44.67A19.46,19.46,0,0,0,79,28.7L62,16.84a18.29,18.29,0,0,0-20.92,0L24,28.7a19.46,19.46,0,0,0-8.34,16V71A17.06,17.06,0,0,0,32.75,88H70.26a17.07,17.07,0,0,0,3.89-.45.24.24,0,0,0,.09-.42Z"/><g id="_trademark"><path class="cls-2" d="M36.55,104.34a2.24,2.24,0,0,1-.67,1.75,2.3,2.3,0,0,1-1.57.6c-1.27,0-1.89-.75-1.89-2.29V99.67H30.5v5.28a3.5,3.5,0,0,0,.91,2.59,3.37,3.37,0,0,0,5.14-.61v1.38h1.92V99.67H36.55Z"/><path class="cls-2" d="M45.26,99.54A4.44,4.44,0,0,0,42,100.83a4.49,4.49,0,0,0,0,6.32,4.73,4.73,0,0,0,6.49,0,4.49,4.49,0,0,0,0-6.32A4.44,4.44,0,0,0,45.26,99.54ZM47.88,104a2.7,2.7,0,0,1-.74,2,2.72,2.72,0,0,1-3.77,0,3,3,0,0,1,0-3.93,2.72,2.72,0,0,1,3.77,0A2.7,2.7,0,0,1,47.88,104Z"/><path class="cls-2" d="M27.45,102.61a5.54,5.54,0,0,0-1.7-4.13,5.77,5.77,0,0,0-4.19-1.66,5.77,5.77,0,0,0-4.19,1.66,5.87,5.87,0,0,0,0,8.26,5.77,5.77,0,0,0,4.19,1.66,5.88,5.88,0,0,0,3.26-.91l2.11,1.77,1.22-1.46-1.91-1.6A5.56,5.56,0,0,0,27.45,102.61Zm-3.08,2.87a3.92,3.92,0,0,1-5.62,0,4.18,4.18,0,0,1,0-5.74,3.92,3.92,0,0,1,5.62,0,4.18,4.18,0,0,1,0,5.74Z"/><path class="cls-2" d="M56,106.49l0,0,0,0a1.27,1.27,0,0,1-.75.27,1.08,1.08,0,0,1-.85-.34,1.35,1.35,0,0,1-.3-.93v-4.26h2.24V99.67H54V97H52.06v8.45a2.93,2.93,0,0,0,.83,2.18,2.76,2.76,0,0,0,2,.81,3.14,3.14,0,0,0,2.13-.86l0,0-.15-.25Z"/><path class="cls-2" d="M73,106.56a1.21,1.21,0,0,1-.65.2,1.08,1.08,0,0,1-.85-.34,1.35,1.35,0,0,1-.3-.93v-4.26h2.24V99.67H71.19V97H69.27v8.45a2.93,2.93,0,0,0,.83,2.18,2.76,2.76,0,0,0,2,.81,3.12,3.12,0,0,0,2.1-.83l.06,0-1.22-1Z"/><path class="cls-2" d="M63,99.54a5.6,5.6,0,0,0-3.56,1.25l0,0,.15.2,1,.84,0,0a4.2,4.2,0,0,1,2.16-.68c1.23,0,1.82.53,1.82,1.63V103H62.3a4.52,4.52,0,0,0-2.55.63,2.18,2.18,0,0,0-1,1.93,2.59,2.59,0,0,0,.89,2.06,3.32,3.32,0,0,0,2.24.77,3.59,3.59,0,0,0,2.77-1.16v1h1.76v-5.55a3,3,0,0,0-1-2.44A3.91,3.91,0,0,0,63,99.54Zm1.55,4.88v.66a1.48,1.48,0,0,1-.61,1.24,2.38,2.38,0,0,1-1.46.47,2.29,2.29,0,0,1-1.3-.32,1,1,0,0,1-.45-.9c0-.78.61-1.15,1.87-1.15Z"/><rect class="cls-2" x="76.38" y="99.66" width="1.92" height="8.64"/><path class="cls-2" d="M77.36,96a1.21,1.21,0,1,0,.85.35A1.16,1.16,0,0,0,77.36,96Z"/><path class="cls-2" d="M86.51,103.86a5.14,5.14,0,0,0-.82-.45c-.25-.11-.52-.2-.78-.29s-.58-.17-.92-.26a4,4,0,0,1-.8-.27.57.57,0,0,1-.38-.55.69.69,0,0,1,.37-.64,2,2,0,0,1,1-.22,3.94,3.94,0,0,1,2,.53l0,0,1-1.22,0-.05-.06,0a5.07,5.07,0,0,0-2.82-.87,3.88,3.88,0,0,0-2.43.72,2.35,2.35,0,0,0-.94,1.95c0,1.15.91,2,2.7,2.46l.19.06c1.09.33,1.65.7,1.65,1.09a.8.8,0,0,1-.33.66,1.44,1.44,0,0,1-.92.27A4.35,4.35,0,0,1,82,106l0,0-1.35,1.13-.06.05.07,0a5.91,5.91,0,0,0,1.64.85,6.12,6.12,0,0,0,1.95.34,3.5,3.5,0,0,0,2.3-.74,2.47,2.47,0,0,0,.9-2A2.07,2.07,0,0,0,86.51,103.86Z"/></g></g></g><g id="_Baseline"><text class="cls-3" transform="translate(127.57 72.54)"><tspan class="cls-4">V</tspan><tspan x="11.09" y="0">os t</tspan><tspan class="cls-5" x="42.32" y="0">r</tspan><tspan class="cls-6" x="48.56" y="0">a</tspan><tspan class="cls-7" x="58.55" y="0">v</tspan><tspan x="67.28" y="0">aux en mieux</tspan></text></g></g></svg>