<?xml version="1.0" encoding="utf-8"?>
<!-- Generator: Adobe Illustrator 21.0.0, SVG Export Plug-In . SVG Version: 6.00 Build 0)  -->
<svg version="1.1" id="Calque_1" xmlns="http://www.w3.org/2000/svg" xmlns:xlink="http://www.w3.org/1999/xlink" x="0px" y="0px"
	 viewBox="0 0 28.2 18" style="enable-background:new 0 0 28.2 18;" xml:space="preserve">
<style type="text/css">
	.st0{fill:#262626;}
</style>
<path class="st0" d="M0,9.1C-0.2,4.5,3.9,0.2,8.5,0c2.4-0.2,4.6,0.7,6.5,2.2c-0.9,0.9-1.5,1.5-2.4,2.4c-1.5-1-3.4-1.7-5.3-1
	c-2.9,0.9-4.8,4.3-3.6,7.2c0.9,3.1,4.6,4.8,7.5,3.4c1.5-0.5,2.6-1.9,2.9-3.4c-1.7,0-3.4,0-5.1,0c0-1,0-2.1,0-3.1c2.9,0,5.8,0,8.6,0
	c0.2,2.6-0.2,5.1-1.9,7.2c-2.2,2.9-6.3,3.8-9.8,2.6C2.4,16.4-0.2,12.9,0,9.1L0,9.1z"/>
<path class="st0" d="M23.1,5.2h2.6c0,0.9,0,1.7,0,2.6c0.9,0,1.7,0,2.6,0v2.6c-0.9,0-1.7,0-2.6,0c0,0.9,0,1.7,0,2.6
	c-0.9,0-1.7,0-2.6,0c0-0.9,0-1.7,0-2.6c-0.9,0-1.7,0-2.6,0V7.7c0.9,0,1.7,0,2.6,0C23.1,6.9,23.1,6,23.1,5.2L23.1,5.2z"/>
</svg>
