<?xml version="1.0" encoding="utf-8"?>
<!-- Generator: Adobe Illustrator 21.0.0, SVG Export Plug-In . SVG Version: 6.00 Build 0)  -->
<svg version="1.1" id="Calque_1" xmlns="http://www.w3.org/2000/svg" xmlns:xlink="http://www.w3.org/1999/xlink" x="0px" y="0px"
	 viewBox="0 0 21.9 18" style="enable-background:new 0 0 21.9 18;" xml:space="preserve">
<style type="text/css">
	.st0{fill:#262626;}
</style>
<path class="st0" d="M19.6,2.8c0.8-0.3,1.5-0.4,2.3-0.6c-0.5,0.8-1,1.4-1.8,1.9c-0.4,0.3-0.4,0.5-0.4,0.9c-0.1,5.1-2.3,9-6.8,11.5
	C10.8,17.7,8.5,18.1,6,18c-1.9-0.1-3.7-0.6-5.5-1.7c-0.1-0.1-0.4-0.1-0.5-0.3c2.4,0.1,4.6-0.4,6.5-1.9c-2.1-0.3-3.5-1.3-4.2-3.2
	c0.6,0,1.3,0,1.9,0c0,0,0,0,0-0.1c-2.2-0.6-3.3-2.2-3.5-4.5c0.6,0.1,1.3,0.4,1.9,0.5c0,0,0,0,0-0.1C0.8,5,0.3,3.1,1.4,0.7
	c2.4,2.9,5.5,4.6,9.4,4.9c0-0.6,0-1.2,0-1.7C11,1.8,12.8,0.2,14.9,0c1.3-0.1,2.4,0.3,3.5,1.2c0.1,0.1,0.4,0.3,0.5,0.1
	c0.9-0.3,1.7-0.6,2.4-0.9C21,1.3,20.4,2.1,19.6,2.8C19.6,2.7,19.6,2.7,19.6,2.8z"/>
</svg>
