<?xml version="1.0" encoding="utf-8"?>
<!-- Generator: Adobe Illustrator 21.0.0, SVG Export Plug-In . SVG Version: 6.00 Build 0)  -->
<svg version="1.1" id="Calque_1" xmlns="http://www.w3.org/2000/svg" xmlns:xlink="http://www.w3.org/1999/xlink" x="0px" y="0px"
	 viewBox="211.9 98.7 12.9 20.4" style="enable-background:new 211.9 98.7 12.9 20.4;" xml:space="preserve">
<style type="text/css">
	.white-svg{fill:#FFFFFF;}
</style>
<g>
	<path class="white-svg" d="M222.5,119.1h-8.3c-1.3,0-2.3-1-2.3-2.3V101c0-1.3,1-2.3,2.3-2.3h8.3c1.3,0,2.3,1,2.3,2.3v15.8
		C224.8,118.1,223.7,119.1,222.5,119.1z M214.3,116.7h8v-15.5h-8V116.7z"/>
	<path class="white-svg" d="M221.8,117.6h-7c-1,0-1.8-0.8-1.8-1.8v0c0-1,0.8-1.8,1.8-1.8h7c1,0,1.8,0.8,1.8,1.8v0
		C223.6,116.7,222.8,117.6,221.8,117.6z"/>
</g>
</svg>
