<svg xmlns="http://www.w3.org/2000/svg" viewBox="0 0 312.11 220.64">
  <defs>
    <style>.EmployeesNumber-darkercolor{fill:#383838;}.EmployeesNumber-primarycolor{fill:#3333fe;}</style>
  </defs>
  <g>
    <g>
      <path class="EmployeesNumber-darkercolor" d="M70.82,60.57H65.5A30.32,30.32,0,0,0,35.22,90.85v24.77a19.15,19.15,0,0,0,5,12.88v16A200.9,200.9,0,0,0,7.31,166.18,20.09,20.09,0,0,0,0,181.66v16.89a8,8,0,0,0,8,8H60.9a8,8,0,0,0,0-16H16v-9a4.12,4.12,0,0,1,1.42-3.11A181.72,181.72,0,0,1,51.1,156.93a9.08,9.08,0,0,0,5.13-8.19V124.89a8.08,8.08,0,0,0-3.57-6.65,3.11,3.11,0,0,1-1.42-2.62V90.85A14.29,14.29,0,0,1,65.5,76.58h5.32A14.29,14.29,0,0,1,85.1,90.85v24.77a3.11,3.11,0,0,1-1.42,2.61,7.85,7.85,0,0,0-3.58,6.65v31a8,8,0,0,0,16,0V128.5a19.15,19.15,0,0,0,5-12.87V90.85A30.32,30.32,0,0,0,70.82,60.57Z"/>
      <path class="EmployeesNumber-darkercolor" d="M304.8,166.18a201,201,0,0,0-32.9-21.63v-16a19.15,19.15,0,0,0,5-12.87V90.85A30.32,30.32,0,0,0,246.6,60.57h-5.32A30.32,30.32,0,0,0,211,90.85v24.77a19.15,19.15,0,0,0,5,12.88v23.35a8,8,0,0,0,16,0v-27a7.86,7.86,0,0,0-3.57-6.65,3.11,3.11,0,0,1-1.42-2.62V90.85a14.29,14.29,0,0,1,14.27-14.27h5.32a14.29,14.29,0,0,1,14.27,14.27v24.77a3.12,3.12,0,0,1-1.44,2.63,8.07,8.07,0,0,0-3.56,6.63v23.85a9.08,9.08,0,0,0,5.13,8.19,181.53,181.53,0,0,1,33.65,21.54,4.12,4.12,0,0,1,1.44,3.12v9H251.2a8,8,0,0,0,0,16h52.9a8,8,0,0,0,8-8V181.66A20.1,20.1,0,0,0,304.8,166.18Z"/>
      <path class="EmployeesNumber-primarycolor" d="M203.35,82V43a43.05,43.05,0,0,0-43-43h-8.4a43.05,43.05,0,0,0-43,43V82a25.53,25.53,0,0,0,7.84,18.4v30c-9.36,4.8-32.24,17.28-53.6,34.88A26.6,26.6,0,0,0,53.35,186v26.72a7.89,7.89,0,0,0,7.92,7.92h189.6a7.89,7.89,0,0,0,7.92-7.92V186A26.61,26.61,0,0,0,249,165.28c-21.36-17.52-44.24-30.08-53.6-34.88v-30A25.15,25.15,0,0,0,203.35,82ZM239,177.52a10.89,10.89,0,0,1,4,8.48v18.8H69.27V186a10.89,10.89,0,0,1,4-8.48c23.52-19.36,49-32.24,53.92-34.64a9.76,9.76,0,0,0,5.44-8.64V96.64a8,8,0,0,0-3.52-6.56,9.63,9.63,0,0,1-4.32-8v-39A27.22,27.22,0,0,1,152,15.92h8.4a27.23,27.23,0,0,1,27.2,27.2v39a9.53,9.53,0,0,1-4.32,8,7.75,7.75,0,0,0-3.52,6.56v37.6a9.66,9.66,0,0,0,5.44,8.64c4.8,2.4,30.32,15.36,53.84,34.64Zm0,0"/>
    </g>
  </g>
</svg>