<?xml version="1.0" encoding="utf-8"?>
<!-- Generator: Adobe Illustrator 21.0.0, SVG Export Plug-In . SVG Version: 6.00 Build 0)  -->
<svg version="1.1" id="Calque_1" xmlns="http://www.w3.org/2000/svg" xmlns:xlink="http://www.w3.org/1999/xlink" x="0px" y="0px"
	 viewBox="0 0 20 20" style="enable-background:new 0 0 20 20;" xml:space="preserve">
<style type="text/css">
	.help-FloattingButton{fill:#ABABAB;}
</style>
<g>
	<rect x="9" y="12" class="help-FloattingButton" width="2" height="2"/>
	<path class="help-FloattingButton" d="M10,4C8.3,4,7,5.4,7,7h2c0-0.6,0.4-1,1-1s1,0.4,1,1c0,0.3-0.1,0.6-0.4,0.8C9.5,8.6,9,9.7,9,11h2
		c0-0.7,0.2-1.2,0.8-1.6C12.5,8.9,13,8,13,7C13,5.4,11.7,4,10,4z"/>
	<path class="help-FloattingButton" d="M10,0C4.5,0,0,4,0,9c0,2.4,1.1,4.7,3,6.4V20l5.9-2.1C9.3,18,9.7,18,10,18c5.5,0,10-4,10-9S15.5,0,10,0z M10,16
		c-0.3,0-0.7,0-1.1-0.1H8.7L5,17.2v-2.7l-0.4-0.3C3,12.8,2,11,2,9c0-3.9,3.6-7,8-7s8,3.1,8,7S14.4,16,10,16z"/>
</g>
</svg>
