<svg xmlns="http://www.w3.org/2000/svg" viewBox="0 0 97 97"><defs><style>.icon{fill:#ababab;}</style></defs><title>_icon_free_member</title><g id="Calque_2" data-name="Calque 2"><g id="Calque_1-2" data-name="Calque 1"><g id="_icon_free_member"><path class="icon" d="M48.5,4A44.5,44.5,0,1,1,4,48.5,44.55,44.55,0,0,1,48.5,4m0-4A48.5,48.5,0,1,0,97,48.5,48.49,48.49,0,0,0,48.5,0Z"/><path class="icon" d="M35.21,54a42.19,42.19,0,0,0,9.37,1A41.84,41.84,0,0,0,54,53.94a.62.62,0,0,0,.47-.67,10.4,10.4,0,0,0-7.42-9v-.69A.62.62,0,0,0,46.4,43a.63.63,0,0,0-.62.63v.44a9.41,9.41,0,0,0-1.2-.09,9.71,9.71,0,0,0-1.21.09v-.44a.62.62,0,0,0-.61-.63.63.63,0,0,0-.62.63v.69a10.4,10.4,0,0,0-7.41,9A.64.64,0,0,0,35.21,54Zm6.93-8.33v1.71a.62.62,0,0,0,.62.62.61.61,0,0,0,.61-.62v-2a8.12,8.12,0,0,1,1.21-.1,7.88,7.88,0,0,1,1.2.1v2a.62.62,0,0,0,.62.62.61.61,0,0,0,.61-.62V45.62a9.14,9.14,0,0,1,6.12,7.23,41.4,41.4,0,0,1-17.1,0A9.11,9.11,0,0,1,42.14,45.62Zm2.44,7a17.45,17.45,0,0,1-3.81-.43.64.64,0,0,1-.47-.75A.62.62,0,0,1,41,51a16,16,0,0,0,7.08,0,.6.6,0,0,1,.73.47.62.62,0,0,1-.46.75A17.45,17.45,0,0,1,44.58,52.6ZM34.32,56.77c0-.4,0-1.64.92-2s1.74.56,1.91.74a.63.63,0,0,1,0,.88.6.6,0,0,1-.87,0,1.73,1.73,0,0,0-.56-.4,1.92,1.92,0,0,0-.14.82,2.69,2.69,0,0,0,1.61,2.76.66.66,0,0,1,.4.43l0,.1a.36.36,0,0,1,0,.11c.47,5.7,4.91,7.54,7,7.54s6.5-1.84,7-7.54c0,0,0-.08,0-.11l0-.1a.66.66,0,0,1,.4-.43,2.7,2.7,0,0,0,1.61-2.76,2.11,2.11,0,0,0-.14-.82,1.68,1.68,0,0,0-.56.4.6.6,0,0,1-.87,0,.63.63,0,0,1,0-.88c.17-.18,1.05-1.07,1.91-.74s.91,1.57.92,2a4,4,0,0,1-2.09,3.83c-.61,5.79-5.11,8.4-8.17,8.4S37,66.39,36.4,60.6A4,4,0,0,1,34.32,56.77Zm10.93,1.12a.63.63,0,0,1,.62.63v3.73a.63.63,0,0,1-.62.63H43.9a.63.63,0,0,1,0-1.25h.74V58.52A.62.62,0,0,1,45.25,57.89Z"/><path class="icon" d="M33,62.25a.63.63,0,0,0,.62.63h1.35a.62.62,0,0,0,.61-.63v-.66q-.09-.48-.15-1a3.84,3.84,0,0,1-1.08-.86v1.89h-.73A.62.62,0,0,0,33,62.25Z"/><path class="icon" d="M30.72,51a.61.61,0,0,0-.73.47.62.62,0,0,0,.46.75,17.53,17.53,0,0,0,3.38.4,8.49,8.49,0,0,1,.3-1.23A16.28,16.28,0,0,1,30.72,51Z"/><path class="icon" d="M38,66.4a6.79,6.79,0,0,1-3.72,1.35c-2.07,0-6.5-1.84-7-7.54,0,0,0-.08,0-.11l0-.1a.62.62,0,0,0-.39-.43,2.69,2.69,0,0,1-1.62-2.76,2.11,2.11,0,0,1,.14-.82,1.63,1.63,0,0,1,.56.4.6.6,0,0,0,.87,0,.63.63,0,0,0,0-.88c-.17-.18-1-1.07-1.91-.74s-.91,1.57-.92,2a4,4,0,0,0,2.09,3.83c.61,5.79,5.11,8.4,8.17,8.4a7.86,7.86,0,0,0,4.66-1.75A9.37,9.37,0,0,1,38,66.4Z"/><path class="icon" d="M33.88,53.73a40.71,40.71,0,0,1-8.17-.88,9.14,9.14,0,0,1,6.12-7.23v1.71a.61.61,0,0,0,.61.62.62.62,0,0,0,.62-.62v-2a8,8,0,0,1,1.2-.1,8.12,8.12,0,0,1,1.21.1v2a.61.61,0,0,0,.41.58A10.62,10.62,0,0,1,36.7,47V45.62a7.8,7.8,0,0,1,1,.42,11.55,11.55,0,0,1,1.18-.79,9.84,9.84,0,0,0-2.22-.93v-.69a.63.63,0,0,0-.62-.63.62.62,0,0,0-.61.63v.44A9.71,9.71,0,0,0,34.26,44a9.41,9.41,0,0,0-1.2.09v-.44a.63.63,0,0,0-.62-.63.62.62,0,0,0-.61.63v.69a10.37,10.37,0,0,0-7.41,9,.62.62,0,0,0,.47.68,42.25,42.25,0,0,0,9,1Z"/><path class="icon" d="M55.32,53.7a40.48,40.48,0,0,0,6.84-.85,9.13,9.13,0,0,0-6.11-7.23v1.71a.62.62,0,0,1-.62.62.61.61,0,0,1-.61-.62v-2a8.12,8.12,0,0,0-1.21-.1,7.88,7.88,0,0,0-1.2.1v1.59a10.37,10.37,0,0,0-1.24-1.06v-.24l-.21.09a9.35,9.35,0,0,0-1.37-.79,9.16,9.16,0,0,1,1.58-.6v-.69a.62.62,0,1,1,1.24,0v.44a9.41,9.41,0,0,1,1.2-.09,9.71,9.71,0,0,1,1.21.09v-.44a.62.62,0,0,1,.61-.63.63.63,0,0,1,.62.63v.69a10.4,10.4,0,0,1,7.41,9,.63.63,0,0,1-.46.67,42.09,42.09,0,0,1-7.81,1Z"/><path class="icon" d="M57.89,51.42a.62.62,0,0,0-.74-.47,17,17,0,0,1-2.14.32,12.29,12.29,0,0,1,.31,1.23,16.67,16.67,0,0,0,2.1-.33A.64.64,0,0,0,57.89,51.42Z"/><path class="icon" d="M63,54.8c-.86-.33-1.74.56-1.91.74a.63.63,0,0,0,0,.88.6.6,0,0,0,.87,0,1.78,1.78,0,0,1,.56-.4,2.11,2.11,0,0,1,.14.82A2.69,2.69,0,0,1,61,59.57a.66.66,0,0,0-.4.43l0,.1a.36.36,0,0,0,0,.11c-.47,5.7-4.91,7.54-7,7.54a6.39,6.39,0,0,1-3-.86,8.22,8.22,0,0,1-1.07.82,7.65,7.65,0,0,0,4,1.29c3.06,0,7.56-2.61,8.18-8.4a4,4,0,0,0,2.08-3.83C63.86,56.37,63.82,55.13,63,54.8Z"/><path class="icon" d="M54.9,62.25v-2.6a3.71,3.71,0,0,1-1.15,1c0,.19,0,.37-.08.55v.48H53.6a11.4,11.4,0,0,1-.34,1.25h1A.62.62,0,0,0,54.9,62.25Z"/></g></g></g></svg>