<svg xmlns="http://www.w3.org/2000/svg" viewBox="0 0 97 97"><defs><style>.cls-1{fill:#eee;}.cls-2{opacity:0.2;}</style></defs><title>_icon_connect_plan</title><g id="Calque_2" data-name="Calque 2"><g id="Calque_1-2" data-name="Calque 1"><g id="_icon_connect_plan"><path class="cls-1" d="M48.5,4A44.5,44.5,0,1,1,4,48.5,44.55,44.55,0,0,1,48.5,4m0-4A48.5,48.5,0,1,0,97,48.5,48.49,48.49,0,0,0,48.5,0Z"/><g class="cls-2"><path class="cls-1" d="M39.25,4.83a1.36,1.36,0,0,0-.9.35l1.27-.29A1.51,1.51,0,0,0,39.25,4.83Z"/><path class="cls-1" d="M23.25,87.34a1.37,1.37,0,1,0,2.74,0,1.41,1.41,0,0,0-.11-.54q-.68-.4-1.35-.84A1.38,1.38,0,0,0,23.25,87.34Z"/><path class="cls-1" d="M17.82,86.06l.57.45A1.26,1.26,0,0,0,17.82,86.06Z"/><path class="cls-1" d="M22.33,21a2.29,2.29,0,1,0,2.75-2.26v-8l-.92.58v7.44A2.3,2.3,0,0,0,22.33,21ZM26,21a1.37,1.37,0,1,1-1.37-1.39A1.37,1.37,0,0,1,26,21Z"/><path class="cls-1" d="M29.65,13.59a2.29,2.29,0,1,0,2.74-2.26V7l-.91.36v3.94A2.31,2.31,0,0,0,29.65,13.59Z"/><path class="cls-1" d="M57.73,5.76H56.12a2.22,2.22,0,0,0-.68-1.21c-.88-.14-1.76-.25-2.66-.34a2.29,2.29,0,1,0,3.34,2.47h1.23L79.3,28.8h9.09l-.47-.92H79.68ZM53.88,7.6a1.39,1.39,0,1,1,1.37-1.38A1.37,1.37,0,0,1,53.88,7.6Z"/><path class="cls-1" d="M35.78,43.55,54.34,24.84v-9a2.28,2.28,0,1,0-.92,0v8.62l-18,18.16H9.53V70c.29.54.6,1.07.91,1.59v-28Zm16.73-30A1.37,1.37,0,1,1,53.88,15,1.37,1.37,0,0,1,52.51,13.59Z"/><path class="cls-1" d="M32.12,36.18l14.9-15V8.48A2.31,2.31,0,0,0,47.26,4l-1.59.07a2.31,2.31,0,0,0,.44,4.38v12.3L31.74,35.26H10.44v-9.8c-.31.52-.62,1.05-.91,1.59v9.13Zm13.07-30A1.38,1.38,0,1,1,46.57,7.6,1.38,1.38,0,0,1,45.19,6.22Z"/><path class="cls-1" d="M40.62,6.22a1.37,1.37,0,1,1-2.27-1l-1.26.31a2.2,2.2,0,0,0-.13.73,2.32,2.32,0,0,0,1.83,2.26v8.61L28.09,27.88H17.76V23.23a2.31,2.31,0,0,0-.46-4.57,2.31,2.31,0,0,0-.46,4.57V28.8H28.47L39.71,17.47v-9a2.32,2.32,0,0,0,1.83-2.26,2.28,2.28,0,0,0-.62-1.56c-.43.07-.87.14-1.3.23A1.38,1.38,0,0,1,40.62,6.22ZM15.93,21a1.37,1.37,0,1,1,1.37,1.38A1.38,1.38,0,0,1,15.93,21Z"/><path class="cls-1" d="M83.78,21.43c-.85-1.11-1.75-2.17-2.69-3.19l-2-2A44.67,44.67,0,0,0,73,11.35L83,21.43Z"/><path class="cls-1" d="M68.51,55.54a2.3,2.3,0,0,0-2.24,1.84H31.48v7.37H26.86a2.31,2.31,0,1,0,0,.93h5.53V58.3H66.27a2.29,2.29,0,1,0,2.24-2.76Z"/><path class="cls-1" d="M24.62,60.14a2.31,2.31,0,0,0,.46-4.56V50.93H47V45.35a2.29,2.29,0,1,0-.91,0V50H24.16v5.58a2.3,2.3,0,0,0,.46,4.56Zm20.57-17a1.38,1.38,0,1,1,1.38,1.38A1.38,1.38,0,0,1,45.19,43.09ZM24.62,56.46a1.38,1.38,0,1,1-1.37,1.38A1.37,1.37,0,0,1,24.62,56.46Z"/><path class="cls-1" d="M69,30.6a2.29,2.29,0,1,0-.91,0v5.58H91.25c-.09-.31-.17-.62-.26-.92H69Z"/><path class="cls-1" d="M76.29,55.58V50h-22V38a2.28,2.28,0,1,0-.92,0v13h22v4.65a2.29,2.29,0,1,0,.92,0ZM52.51,35.72a1.37,1.37,0,1,1,1.37,1.38A1.38,1.38,0,0,1,52.51,35.72Zm23.32,23.5a1.38,1.38,0,1,1,1.37-1.38A1.37,1.37,0,0,1,75.83,59.22Z"/><path class="cls-1" d="M53.88,82.27a2.31,2.31,0,1,0-2.24-2.77H17.76V52.72a2.28,2.28,0,1,0-.92,0v27l.7.68h34.1A2.29,2.29,0,0,0,53.88,82.27Zm0-3.69A1.39,1.39,0,1,1,52.51,80,1.37,1.37,0,0,1,53.88,78.58ZM15.93,50.47a1.37,1.37,0,1,1,1.37,1.38A1.38,1.38,0,0,1,15.93,50.47Z"/><path class="cls-1" d="M90.46,40.79A2.3,2.3,0,0,0,90,45.35V58.3H91.9c.07-.31.15-.61.21-.92H90.92v-12a2.29,2.29,0,0,0,1.79-1.85c0-.46-.11-.91-.17-1.36A2.27,2.27,0,0,0,90.46,40.79Zm0,3.68a1.38,1.38,0,1,1,1.37-1.38A1.37,1.37,0,0,1,90.46,44.47Z"/><path class="cls-1" d="M61.66,23.23a2.29,2.29,0,1,0-.92,0V43.55H80.91a2.3,2.3,0,1,0,0-.92H61.66Z"/><path class="cls-1" d="M83.6,52.72a2.29,2.29,0,1,0-.91,0v9.19l5.88,5.93c.14-.29.27-.6.41-.89L83.6,61.53Zm-1.83-2.25a1.38,1.38,0,1,1,1.38,1.38A1.38,1.38,0,0,1,81.77,50.47Z"/><path class="cls-1" d="M53.88,89.64a2.31,2.31,0,1,0-2.24-2.76H26.86A2.3,2.3,0,0,0,24.62,85a2.18,2.18,0,0,0-1.08.29c.32.22.66.43,1,.64h.09a1.36,1.36,0,0,1,1.26.84c.58.35,1.17.68,1.77,1h24A2.29,2.29,0,0,0,53.88,89.64Zm0-3.68a1.38,1.38,0,1,1-1.37,1.38A1.37,1.37,0,0,1,53.88,86Z"/><path class="cls-1" d="M70.8,80a2.29,2.29,0,1,0-2.74,2.26v6.24L69,88V82.22A2.3,2.3,0,0,0,70.8,80Zm-3.66,0a1.38,1.38,0,1,1,1.37,1.39A1.38,1.38,0,0,1,67.14,80Z"/><path class="cls-1" d="M63.48,80a2.29,2.29,0,1,0-2.74,2.26v9c.31-.08.61-.16.92-.26V82.22A2.29,2.29,0,0,0,63.48,80Zm-3.65,0a1.37,1.37,0,1,1,1.37,1.39A1.37,1.37,0,0,1,59.83,80Z"/><path class="cls-1" d="M26.86,72.13a2.3,2.3,0,1,0,0,.92H72l7.39,7.45.67-.64-7.68-7.73ZM24.62,74A1.38,1.38,0,1,1,26,72.59,1.37,1.37,0,0,1,24.62,74Z"/><path class="cls-1" d="M41.49,64.75a2.31,2.31,0,1,0,0,.93H76.1l8.59,8.66c.19-.25.37-.5.54-.76l-8.75-8.83ZM39.25,66.6a1.39,1.39,0,1,1,1.37-1.39A1.38,1.38,0,0,1,39.25,66.6Z"/></g><path class="cls-1" d="M28.25,67.32l7.93-4.57c-.13-.21-.25-.41-.36-.63L27.88,66.7A3,3,0,0,1,28.25,67.32Z"/><path class="cls-1" d="M36.19,54.23l-7.93-4.55a2.75,2.75,0,0,1-.35.63l7.91,4.55C35.94,54.64,36.06,54.44,36.19,54.23Z"/><path class="cls-1" d="M25.73,65.63a2.46,2.46,0,0,1,.72.11V51.31a2.85,2.85,0,0,1-.72.11Z"/><path class="cls-1" d="M43.17,50.64V41.46a1.64,1.64,0,0,1-.72,0v9.18l.36,0Z"/><path class="cls-1" d="M42.45,66.36v9.18a1.64,1.64,0,0,1,.72,0V66.36l-.36,0Z"/><path class="cls-1" d="M57.79,66.65l-8-4.57c-.11.21-.23.42-.36.62l7.93,4.56A2.54,2.54,0,0,1,57.79,66.65Z"/><path class="cls-1" d="M57.36,49.68l-7.91,4.57c.13.21.25.41.36.63l7.9-4.57A2.75,2.75,0,0,1,57.36,49.68Z"/><path class="cls-1" d="M57.29,48a2.57,2.57,0,0,1,.28-.66L45.16,40.13a2.47,2.47,0,0,1-.44.58Z"/><path class="cls-1" d="M44.72,76.29a2.47,2.47,0,0,1,.44.58l12.39-7.16a2.87,2.87,0,0,1-.28-.67Z"/><path class="cls-1" d="M59.17,65.74a2.51,2.51,0,0,1,.72-.11V51.42a2.92,2.92,0,0,1-.72-.11Z"/><path class="cls-1" d="M40.9,40.71a3.16,3.16,0,0,1-.44-.58L28.05,47.3a3,3,0,0,1,.29.66Z"/><path class="cls-1" d="M28.35,69a2.5,2.5,0,0,1-.28.67l12.39,7.16a3.16,3.16,0,0,1,.44-.58Z"/><path class="cls-1" d="M42.81,41.38a2.19,2.19,0,1,0-2.19-2.19A2.19,2.19,0,0,0,42.81,41.38Zm0-3.66a1.47,1.47,0,1,1-1.47,1.47A1.47,1.47,0,0,1,42.81,37.72Z"/><path class="cls-1" d="M59.53,51.07a2.19,2.19,0,1,0-2.19-2.19A2.19,2.19,0,0,0,59.53,51.07Zm0-3.66a1.47,1.47,0,1,1-1.47,1.47A1.47,1.47,0,0,1,59.53,47.41Z"/><path class="cls-1" d="M50.06,58.5a7.25,7.25,0,1,0-7.25,7.25A7.24,7.24,0,0,0,50.06,58.5ZM42.81,65a6.53,6.53,0,1,1,6.53-6.53A6.54,6.54,0,0,1,42.81,65Z"/><path class="cls-1" d="M59.53,66a2.19,2.19,0,1,0,2.19,2.19A2.2,2.2,0,0,0,59.53,66Zm0,3.66A1.47,1.47,0,1,1,61,68.15,1.47,1.47,0,0,1,59.53,69.62Z"/><path class="cls-1" d="M26.09,51a2.19,2.19,0,1,0-2.19-2.19A2.19,2.19,0,0,0,26.09,51Zm0-3.66a1.47,1.47,0,1,1-1.47,1.47A1.47,1.47,0,0,1,26.09,47.36Z"/><path class="cls-1" d="M26.09,66a2.19,2.19,0,1,0,2.19,2.19A2.19,2.19,0,0,0,26.09,66Zm0,3.66a1.47,1.47,0,1,1,1.47-1.47A1.47,1.47,0,0,1,26.09,69.61Z"/><path class="cls-1" d="M42.81,75.62A2.19,2.19,0,1,0,45,77.81,2.19,2.19,0,0,0,42.81,75.62Zm0,3.66a1.47,1.47,0,1,1,1.47-1.47A1.47,1.47,0,0,1,42.81,79.28Z"/><path class="cls-1" d="M42.85,57.93A2.19,2.19,0,0,0,45,55.77a2.16,2.16,0,1,0-2.15,2.16Zm0-3.78a1.62,1.62,0,0,1,1.62,1.62,1.63,1.63,0,1,1-3.25,0A1.62,1.62,0,0,1,42.85,54.15Z"/><path class="cls-1" d="M42.88,58.86A4.17,4.17,0,0,0,39,61.58a.37.37,0,0,0,.22.47.36.36,0,0,0,.46-.22,3.37,3.37,0,0,1,6.35,0,.37.37,0,0,0,.34.24l.13,0a.37.37,0,0,0,.21-.47A4.16,4.16,0,0,0,42.88,58.86Z"/></g></g></g></svg>