<svg id="Groupe_2" data-name="Groupe 2" xmlns="http://www.w3.org/2000/svg" width="127" height="127" viewBox="0 0 127 127">
  <metadata><?xpacket begin="﻿" id="W5M0MpCehiHzreSzNTczkc9d"?>
<x:xmpmeta xmlns:x="adobe:ns:meta/" x:xmptk="Adobe XMP Core 5.6-c142 79.160924, 2017/07/13-01:06:39        ">
   <rdf:RDF xmlns:rdf="http://www.w3.org/1999/02/22-rdf-syntax-ns#">
      <rdf:Description rdf:about=""/>
   </rdf:RDF>
</x:xmpmeta>
<?xpacket end="w"?></metadata>
<defs>
    <style>
      .icon_ksp_1, .icon_ksp_1_2 {
        fill: none;
        stroke: #262626;
      }

      .icon_ksp_1 {
        stroke-width: 3px;
      }

      .icon_ksp_1_2 {
        stroke-width: 2px;
      }

      .icon_ksp_1_2, .cls-3, .cls-4 {
        fill-rule: evenodd;
      }

      .cls-3 {
        fill: #262626;
      }

      .cls-4 {
        fill: #3333fe;
      }
    </style>
  </defs>
  <circle id="_circle" class="icon_ksp_1" cx="63.5" cy="63.5" r="62"/>
  <path id="_card" class="icon_ksp_1_2" d="M670.62,1227.27h40.9a2.005,2.005,0,0,1,2,2.01v49.44a2,2,0,0,1-2,2h-40.9a2,2,0,0,1-2-2v-49.44A2.005,2.005,0,0,1,670.62,1227.27Z" transform="translate(-626.5 -1190.5)"/>
  <path id="_check_text" class="cls-3" d="M675.034,1264.69v-2.14H707.1v2.14H675.034Zm0,3.21v-2.14H707.1v2.14H675.034Zm-0.138-36.35h3.483a2,2,0,0,1,2,2v3.48a2,2,0,0,1-2,2H674.9a2,2,0,0,1-2-2v-3.48A2,2,0,0,1,674.9,1231.55Zm0.138,40.62v-2.14H707.1v2.14H675.034Zm0,3.21v-2.14H707.1v2.14H675.034Z" transform="translate(-626.5 -1190.5)"/>
  <path id="_check" class="cls-4" d="M687.43,1257.18h-0.006a1.172,1.172,0,0,1-.831-0.34l-5.883-5.77a1.126,1.126,0,0,1,.01-1.62,1.215,1.215,0,0,1,1.665.01l5.052,4.96,12.286-11.84a1.2,1.2,0,0,1,1.664,0,1.112,1.112,0,0,1,0,1.61l-13.124,12.66A1.2,1.2,0,0,1,687.43,1257.18Z" transform="translate(-626.5 -1190.5)"/>
</svg>
