<svg id="6e8763e3-9ec5-4569-bba1-7fb5ad9e954f" data-name="Calque 1" xmlns="http://www.w3.org/2000/svg" viewBox="0 0 46.12 62.7"><title>location-pin-icon</title><path d="M599.06,1969A23.08,23.08,0,0,0,576,1992.1c0,10,14.07,29.92,20.23,38.18a3.53,3.53,0,0,0,5.66,0c6.16-8.26,20.23-28.21,20.23-38.18a23.08,23.08,0,0,0-23.06-23.1Zm1.59,55.87a2,2,0,0,1-3.17,0c-10.71-14.78-17.27-27.17-17.27-32.77a18.86,18.86,0,1,1,37.71,0c0,5.59-6.56,18-17.27,32.77Zm-1.59-44.05a9.82,9.82,0,1,0,9.81,9.82,9.82,9.82,0,0,0-9.81-9.82Zm0,15.44a5.61,5.61,0,1,1,5.61-5.61,5.62,5.62,0,0,1-5.61,5.61Zm0,0" transform="translate(-576 -1969)"/></svg>