<?xml version="1.0" encoding="utf-8"?>
<!-- Generator: Adobe Illustrator 21.0.0, SVG Export Plug-In . SVG Version: 6.00 Build 0)  -->
<svg version="1.1" xmlns="http://www.w3.org/2000/svg" xmlns:xlink="http://www.w3.org/1999/xlink" x="0px" y="0px"
	 viewBox="0 0 64 64" style="enable-background:new 0 0 64 64;" xml:space="preserve">
<style type="text/css">.logo-bot_primary{fill:#3333FE;}
</style>
<path class="logo-bot_primary" d="M32,0C14.3,0,0,14.3,0,32s14.3,32,32,32s32-14.3,32-32S49.7,0,32,0z M49,40.6c0,2.1-0.8,4-2.1,5.5c0,0-0.1,0-0.2,0
	c-1.8-1.5-3.5-2.9-3.5-2.9l-3.6-3C39.4,40,39.2,40,38.9,40c-2.3,0-14.2,0-14.2,0c-0.6,0-1.1-0.5-1.1-1.1v-10c0-0.4,0.2-0.8,0.5-1
	l7.1-5.3c0.2-0.1,0.4-0.2,0.6-0.2c0.2,0,0.4,0.1,0.6,0.2l7.1,5.3c0.3,0.2,0.5,0.6,0.5,1v5.9c0,0.3,0.1,0.5,0.3,0.7l4,3.4
	c0.2,0.2,0.5,0,0.5-0.2v-9.9c0-1.8-0.9-3.6-2.4-4.7l-7.2-5.3c-2.1-1.5-4.9-1.5-6.9,0l-7.2,5.3c-1.5,1.1-2.4,2.8-2.4,4.7V40
	c0,2.6,2.1,4.6,4.6,4.6H38c0.1,0,0.2,0,0.3,0.1l4.2,3.5c0.1,0.1,0,0.2,0,0.2c-0.6,0.1-1.2,0.2-1.8,0.2H23.1c-4.5,0-8.1-3.6-8.1-8.1
	V28.1c0-3,1.5-5.9,4-7.6l8.1-5.6c3-2.1,6.9-2.1,9.9,0l8.1,5.6c2.5,1.7,4,4.6,4,7.6L49,40.6L49,40.6z"/>
</svg>
