<?xml version="1.0" encoding="utf-8"?>
<!-- Generator: Adobe Illustrator 21.0.0, SVG Export Plug-In . SVG Version: 6.00 Build 0)  -->
<svg version="1.1" id="logo" xmlns="http://www.w3.org/2000/svg" xmlns:xlink="http://www.w3.org/1999/xlink" x="0px" y="0px"
	 viewBox="0 0 50.1 64" style="enable-background:new 0 0 50.1 64;" xml:space="preserve">
<style type="text/css">
	.white-svg{fill:#FFFFFF;}
</style>
<g>
	<path id="trademark" class="white-svg" d="M34.8,44.4c-0.2-0.2-0.3-0.2-0.5-0.2H12.6c-3.8,0-6.8-3-6.8-6.6V21.7c0-2.6,1.3-5.1,3.4-6.6
		l10.7-7.5c3-2.1,7.1-2.1,10.2,0l10.7,7.5c2.2,1.6,3.4,4,3.4,6.6v13.9c0,0.3-0.4,0.5-0.7,0.3l-5.8-4.8c-0.3-0.2-0.5-0.6-0.5-0.9V22
		c0-0.6-0.3-1.1-0.7-1.5L25.9,13c-0.2-0.2-0.6-0.3-0.9-0.3c-0.3,0-0.7,0.1-0.9,0.3l-10.5,7.5c-0.5,0.3-0.7,0.9-0.7,1.5v14
		c0,0.8,0.7,1.5,1.6,1.5c0,0,17.5,0,20.8,0c0.3,0,0.7,0.1,1,0.3l5.3,4.2c0,0,2.5,2.1,5.2,4.2c0.1,0.1,0.2,0.1,0.2,0
		c2-2.1,3.1-4.8,3.1-7.7V20.8c0-4.3-2.1-8.2-5.8-10.7l-11.9-8c-4.3-3-10.2-3-14.6,0l-11.9,8C2.2,12.6,0,16.6,0,20.8v17.6
		c0,6.3,5.3,11.4,11.9,11.4h26.2c0.9,0,1.8-0.1,2.7-0.3c0.2,0,0.2-0.2,0.1-0.2L34.8,44.4z"/>
	<g id="baseline">
		<path class="white-svg" d="M14.5,60.7c0,0.5-0.2,0.9-0.5,1.1c-0.3,0.2-0.7,0.4-1.1,0.4c-0.9,0-1.3-0.5-1.3-1.6v-3.2h-1.3V61
			c0,0.7,0.2,1.3,0.7,1.7c0.4,0.4,1,0.6,1.6,0.6c0.4,0,0.8-0.1,1.1-0.3c0.3-0.2,0.6-0.4,0.7-0.7v0.9h1.3v-5.7h-1.3L14.5,60.7z"/>
		<path class="white-svg" d="M20.6,57.5c-0.9,0-1.6,0.3-2.3,0.9c-0.7,0.6-0.9,1.3-0.9,2.1c0,0.8,0.3,1.6,0.9,2.1c0.6,0.6,1.4,0.9,2.3,0.9
			s1.6-0.3,2.3-0.9c0.6-0.6,0.9-1.3,0.9-2.1c0-0.8-0.3-1.6-0.9-2.1C22.3,57.8,21.5,57.5,20.6,57.5z M22.5,60.6c0,0.6-0.2,1-0.5,1.3
			c-0.3,0.3-0.8,0.5-1.3,0.5c-0.5,0-1-0.2-1.3-0.5c-0.3-0.3-0.5-0.7-0.5-1.3c0-0.6,0.2-1,0.5-1.3c0.3-0.3,0.8-0.5,1.3-0.5
			c0.5,0,1,0.2,1.3,0.5C22.3,59.6,22.5,60,22.5,60.6z"/>
		<path class="white-svg" d="M8.2,59.6c0-1.1-0.4-2.1-1.1-2.8c-0.8-0.7-1.8-1.1-3-1.1s-2.1,0.4-3,1.1C0.3,57.5,0,58.4,0,59.6
			c0,1.1,0.4,2.1,1.1,2.8c0.8,0.7,1.8,1.1,3,1.1c0.9,0,1.6-0.2,2.3-0.6L7.9,64l0.8-1l-1.3-1.1C7.9,61.3,8.2,60.6,8.2,59.6z
			 M6.1,61.5c-0.5,0.5-1.1,0.8-2,0.8c-0.7,0-1.4-0.2-2-0.8c-0.5-0.5-0.8-1.1-0.8-1.9c0-0.7,0.2-1.4,0.8-1.9c0.5-0.5,1.1-0.8,2-0.8
			c0.7,0,1.4,0.2,2,0.8c0.5,0.5,0.8,1.1,0.8,1.9C6.8,60.3,6.6,61,6.1,61.5z"/>
		<path class="white-svg" d="M28.1,62.2L28.1,62.2L28.1,62.2c-0.2,0.1-0.4,0.2-0.6,0.2c-0.2,0-0.5-0.1-0.6-0.2c-0.2-0.2-0.2-0.3-0.2-0.7
			v-2.9h1.6v-1.1h-1.6v-1.8h-1.3v5.7c0,0.6,0.2,1.1,0.6,1.5c0.4,0.3,0.8,0.6,1.4,0.6c0.6,0,1.1-0.2,1.5-0.6l0,0l-0.1-0.2L28.1,62.2z
			"/>
		<path class="white-svg" d="M40,62.2c-0.2,0.1-0.3,0.2-0.5,0.2c-0.2,0-0.5-0.1-0.6-0.2c-0.2-0.2-0.2-0.3-0.2-0.7v-2.9h1.6v-1.1h-1.6v-1.8
			h-1.3v5.7c0,0.6,0.2,1.1,0.6,1.5c0.4,0.3,0.8,0.6,1.4,0.6c0.5,0,1-0.2,1.5-0.6l0,0L40,62.2L40,62.2z"/>
		<path class="white-svg" d="M33,57.5c-0.9,0-1.7,0.2-2.5,0.8l0,0l0.1,0.2l0.7,0.6l0,0c0.5-0.3,1.1-0.5,1.5-0.5c0.8,0,1.3,0.3,1.3,1.1v0.2
			h-1.6c-0.7,0-1.3,0.2-1.8,0.4c-0.4,0.2-0.7,0.7-0.7,1.3s0.2,1.1,0.7,1.4c0.4,0.3,0.9,0.5,1.6,0.5c0.8,0,1.5-0.2,2-0.7v0.7h1.2
			v-3.7c0-0.7-0.2-1.3-0.7-1.6C34.3,57.7,33.7,57.5,33,57.5z M34.1,60.8v0.4c0,0.3-0.2,0.7-0.4,0.8c-0.3,0.2-0.7,0.3-1,0.3
			c-0.4,0-0.7-0.1-0.9-0.2c-0.2-0.2-0.3-0.3-0.3-0.6c0-0.5,0.4-0.7,1.3-0.7H34.1z"/>
		<rect x="42.3" y="57.6" class="white-svg" width="1.3" height="5.7"/>
		<path class="white-svg" d="M43,55.2c-0.2,0-0.4,0.1-0.6,0.2c-0.2,0.2-0.2,0.3-0.2,0.6c0,0.2,0.1,0.4,0.2,0.6c0.2,0.2,0.3,0.2,0.6,0.2
			c0.2,0,0.4-0.1,0.6-0.2c0.2-0.2,0.2-0.3,0.2-0.6c0-0.2-0.1-0.4-0.2-0.6C43.4,55.3,43.2,55.2,43,55.2z"/>
		<path class="white-svg" d="M49.4,60.4c-0.2-0.2-0.4-0.2-0.6-0.3s-0.3-0.2-0.6-0.2c-0.2-0.1-0.4-0.1-0.7-0.2s-0.4-0.1-0.6-0.2
			s-0.2-0.2-0.2-0.3c0-0.2,0.1-0.3,0.2-0.4c0.2-0.1,0.4-0.2,0.7-0.2c0.5,0,1,0.1,1.4,0.3l0,0l0.7-0.8l0,0l0,0
			c-0.6-0.4-1.3-0.6-2-0.6c-0.7,0-1.2,0.2-1.7,0.5c-0.4,0.3-0.7,0.7-0.7,1.3c0,0.7,0.7,1.3,1.9,1.6c0,0,0.1,0,0.2,0.1
			c0.7,0.2,1.1,0.5,1.1,0.7c0,0.2-0.1,0.3-0.2,0.4c-0.2,0.1-0.4,0.2-0.7,0.2c-0.5,0-1.1-0.2-1.6-0.5l0,0l-0.9,0.7h-0.1h0.1
			c0.3,0.2,0.7,0.4,1.1,0.6c0.5,0.2,0.9,0.2,1.4,0.2c0.7,0,1.1-0.2,1.6-0.5c0.4-0.3,0.7-0.8,0.7-1.3C50.1,61.1,49.8,60.7,49.4,60.4z
			"/>
	</g>
</g>
</svg>
