<?xml version="1.0" encoding="utf-8"?>
<!-- Generator: Adobe Illustrator 21.0.0, SVG Export Plug-In . SVG Version: 6.00 Build 0)  -->
<svg version="1.1" id="Calque_1" xmlns="http://www.w3.org/2000/svg" xmlns:xlink="http://www.w3.org/1999/xlink" x="0px" y="0px"
	 viewBox="0 0 18 18" style="enable-background:new 0 0 18 18;" xml:space="preserve">
<style type="text/css">
	.more-FloattingButton{fill:#FFFFFF;}
</style>
<path class="more-FloattingButton" d="M10,1v16c0,0.5-0.4,1-1,1h0c-0.5,0-1-0.5-1-1V1c0-0.5,0.4-1,1-1h0C9.5,0,10,0.5,10,1z"/>
<path class="more-FloattingButton" d="M17,10H1c-0.5,0-1-0.4-1-1v0c0-0.5,0.5-1,1-1h16c0.6,0,1,0.4,1,1v0C18,9.6,17.6,10,17,10z"/>
</svg>
