<?xml version="1.0" encoding="utf-8"?>
<!-- Generator: Adobe Illustrator 21.0.0, SVG Export Plug-In . SVG Version: 6.00 Build 0)  -->
<svg version="1.1" id="signet" xmlns="http://www.w3.org/2000/svg" xmlns:xlink="http://www.w3.org/1999/xlink" x="0px" y="0px"
	 viewBox="0 0 80 112.7" style="enable-background:new 0 0 80 112.7;" xml:space="preserve">
<style type="text/css">
	.logo-qs-white{fill:#FFFFFF;}
	.logo-qs-primary{fill:#3333FE;}
</style>
<title>LOGO_signet-down</title>
<g id="signet_3333fe">
	<g id="logo">
    <path class="logo-qs-white" d="M9.3,93.7c8.6,6.1,8.5,6,19,13.4c10.5,7.4,12.6,7.5,23.4,0c10.8-7.5,10.8-7.5,19-13.4
		c8.2-5.9,9.3-10.9,9.3-18.1v-2.1l0,0V0H0v75.6C0,82.8,0.7,87.6,9.3,93.7z"/>
  </g>
  <g id="baseline">
	<path class="logo-qs-primary" d="M51.1,62c-0.1-0.1-0.3-0.2-0.5-0.2H26.5c-4.2,0-7.6-3.4-7.6-7.6l0,0V35.8c0-3,1.4-5.9,3.9-7.7l11.8-8.7
		c3.4-2.5,7.9-2.5,11.3,0l11.9,8.7c2.4,1.8,3.9,4.6,3.9,7.7v16.1c0,0.3-0.2,0.5-0.4,0.5c-0.1,0-0.2,0-0.3-0.1l-6.5-5.5
		c-0.3-0.3-0.5-0.7-0.5-1.1V36c0-0.7-0.3-1.3-0.9-1.7l-11.7-8.6c-0.6-0.5-1.5-0.5-2.1,0l-11.7,8.6c-0.5,0.4-0.9,1-0.9,1.7v16.3
		c0,1,0.8,1.7,1.7,1.7h23.2c0.4,0,0.8,0.1,1.1,0.4l5.9,4.8c0,0,2.9,2.4,5.7,4.8c0.1,0.1,0.2,0.1,0.2,0c2.2-2.4,3.5-5.6,3.5-8.9V34.7
		c0-5-2.4-9.6-6.5-12.4l-13.2-9.2c-4.9-3.4-11.4-3.4-16.2,0l-13.2,9.2c-4.1,2.8-6.5,7.5-6.5,12.4v20.5c0,7.3,5.9,13.2,13.2,13.2
		h29.1c1,0,2-0.1,3-0.3c0.1,0,0.2-0.1,0.1-0.2c0,0,0-0.1-0.1-0.1L51.1,62z"/>
	<path class="logo-qs-primary" d="M28.6,81c0,0.5-0.2,1-0.5,1.4c-0.3,0.3-0.8,0.5-1.2,0.5c-1,0-1.5-0.6-1.5-1.8v-3.7h-1.5v4.1
		c0,0.7,0.2,1.5,0.7,2c1.1,1,2.7,0.9,3.7-0.1c0.1-0.1,0.2-0.2,0.3-0.4v1.1h1.5v-6.7h-1.5V81z"/>
	<path class="logo-qs-primary" d="M35.4,77.3c-0.9,0-1.9,0.3-2.5,1c-1.3,1.4-1.3,3.5,0,4.9c1.4,1.3,3.6,1.3,5,0c1.3-1.4,1.3-3.5,0-4.9
		C37.3,77.7,36.4,77.3,35.4,77.3z M37.4,80.8c0,0.6-0.2,1.1-0.6,1.6c-0.8,0.8-2.1,0.8-2.9,0c-0.8-0.9-0.8-2.2,0-3.1
		c0.8-0.8,2.1-0.8,2.9,0C37.3,79.7,37.5,80.2,37.4,80.8z"/>
	<path class="logo-qs-primary" d="M21.6,79.7c0-1.2-0.4-2.4-1.3-3.2c-0.9-0.9-2-1.3-3.3-1.3c-1.2,0-2.4,0.4-3.3,1.3c-1.8,1.8-1.8,4.6,0,6.4
		c0.9,0.9,2,1.3,3.3,1.3c0.9,0,1.8-0.2,2.5-0.7l1.6,1.4l0.9-1.1l-1.5-1.2C21.3,81.7,21.6,80.7,21.6,79.7z M19.2,81.9
		c-1.2,1.2-3.1,1.2-4.3,0.1c0,0,0,0-0.1-0.1c-1.2-1.3-1.2-3.2,0-4.5c1.2-1.2,3.1-1.2,4.3-0.1c0,0,0,0,0.1,0.1
		C20.4,78.7,20.4,80.7,19.2,81.9z"/>
	<path class="logo-qs-primary" d="M43.7,82.7L43.7,82.7L43.7,82.7c-0.2,0.1-0.4,0.2-0.6,0.2c-0.2,0-0.5-0.1-0.7-0.3c-0.2-0.2-0.2-0.5-0.2-0.7
		v-3.3H44v-1.2h-1.8v-2.1h-1.5v6.6c0,0.6,0.2,1.2,0.6,1.7c0.4,0.4,1,0.6,1.6,0.6c0.6,0,1.2-0.2,1.7-0.7l0,0l-0.1-0.2L43.7,82.7z"/>
	<path class="logo-qs-primary" d="M56.9,82.8c-0.1,0.1-0.3,0.2-0.5,0.2c-0.2,0-0.5-0.1-0.7-0.3c-0.2-0.2-0.2-0.5-0.2-0.7v-3.3h1.7v-1.2h-1.7
		v-2.1h-1.5v6.6c0,0.6,0.2,1.2,0.6,1.7c0.4,0.4,1,0.6,1.6,0.6c0.6,0,1.2-0.2,1.6-0.6h0L56.9,82.8L56.9,82.8z"/>
	<path class="logo-qs-primary" d="M49.2,77.3c-1,0-2,0.3-2.8,1l0,0l0.1,0.2l0.8,0.7l0,0c0.5-0.3,1.1-0.5,1.7-0.5c1,0,1.4,0.4,1.4,1.3V80h-1.8
		c-0.7,0-1.4,0.1-2,0.5c-0.5,0.3-0.8,0.9-0.8,1.5c0,0.6,0.2,1.2,0.7,1.6c0.5,0.4,1.1,0.6,1.7,0.6c0.8,0,1.6-0.3,2.2-0.9v0.8h1.4
		v-4.3c0-0.7-0.2-1.4-0.8-1.9C50.5,77.5,49.9,77.3,49.2,77.3z M50.4,81.1v0.5c0,0.4-0.2,0.7-0.5,1c-0.3,0.2-0.7,0.4-1.1,0.4
		c-0.4,0-0.7-0.1-1-0.2c-0.2-0.2-0.4-0.4-0.3-0.7c0-0.6,0.5-0.9,1.5-0.9H50.4z"/>
	<rect x="59.6" y="77.4" class="logo-qs-primary" width="1.5" height="6.7"/>
	<path class="logo-qs-primary" d="M60.3,74.6c-0.5,0-0.9,0.4-0.9,0.9s0.4,0.9,0.9,0.9c0.5,0,0.9-0.4,0.9-0.9c0-0.3-0.1-0.5-0.3-0.7
		C60.8,74.7,60.6,74.6,60.3,74.6z"/>
	<path class="logo-qs-primary" d="M67.4,80.7c-0.2-0.1-0.4-0.3-0.6-0.3c-0.2-0.1-0.4-0.2-0.6-0.2C66,80,65.8,80,65.5,79.9
		c-0.2,0-0.4-0.1-0.6-0.2c-0.2-0.1-0.3-0.2-0.3-0.4c0-0.2,0.1-0.4,0.3-0.5c0.2-0.1,0.5-0.2,0.8-0.2c0.5,0,1.1,0.1,1.6,0.4l0,0
		l0.8-0.9v0h0c-0.6-0.4-1.4-0.7-2.2-0.7c-0.7,0-1.3,0.2-1.9,0.6c-0.5,0.4-0.7,0.9-0.7,1.5c0,0.9,0.7,1.6,2.1,1.9l0.1,0
		c0.8,0.3,1.3,0.5,1.3,0.8c0,0.2-0.1,0.4-0.3,0.5c-0.2,0.1-0.5,0.2-0.7,0.2c-0.6,0-1.2-0.2-1.7-0.6l0,0l-1,0.9l0,0h0.1
		c0.4,0.3,0.8,0.5,1.3,0.7c0.5,0.2,1,0.3,1.5,0.3c0.6,0,1.3-0.2,1.8-0.6c0.5-0.4,0.7-1,0.7-1.6C68.2,81.5,67.9,81,67.4,80.7z"/>
  </g>
</g>
</svg>
