<svg version="1.1" id="Calque_1" xmlns="http://www.w3.org/2000/svg" xmlns:xlink="http://www.w3.org/1999/xlink" x="0px" y="0px"
	 viewBox="0 0 16 16" style="enable-background:new 0 0 16 16;" xml:space="preserve">
<style type="text/css">
	.star{fill:#3333FE;}
	.empty_star{fill:#FFFFFF;}
</style>
<g>
	<path class="star" d="M5,4.9L0.4,5.7C0.1,5.7-0.1,6,0,6.3c0,0.1,0.1,0.2,0.1,0.3l3.3,3.5c0.1,0.1,0.2,0.3,0.1,0.5l-0.7,4.8
		C2.8,15.6,3,15.9,3.2,16c0.1,0,0.2,0,0.3,0l4.2-2.2c0.1-0.1,0.3-0.1,0.5,0l4.2,2.2c0.3,0.1,0.6,0,0.7-0.2c0-0.1,0.1-0.2,0-0.3
		l-0.7-4.8c0-0.2,0-0.3,0.1-0.5l3.3-3.5c0.2-0.2,0.2-0.6,0-0.8c-0.1-0.1-0.2-0.1-0.3-0.1L11,4.9c-0.2,0-0.3-0.1-0.4-0.3L8.5,0.3
		C8.4,0,8.1-0.1,7.8,0C7.7,0.1,7.6,0.2,7.6,0.3L5.4,4.6C5.3,4.7,5.2,4.9,5,4.9z"/>
</g>
<g>
	<path class="empty_star" d="M8,1.6L9.7,5c0.2,0.4,0.6,0.8,1.1,0.8l3.7,0.7l-2.7,2.9c-0.3,0.4-0.5,0.8-0.4,1.3
		l0.5,3.9l-3.3-1.8c-0.2-0.1-0.5-0.2-0.7-0.2c-0.2,0-0.5,0.1-0.7,0.2l-3.3,1.7l0.6-3.9c0.1-0.5-0.1-0.9-0.4-1.3L1.4,6.5l3.7-0.6
		c0.5-0.1,0.9-0.4,1.1-0.8L8,1.6"/>
</g>
</svg>
