<?xml version="1.0" encoding="utf-8"?>
<!-- Generator: Adobe Illustrator 21.0.0, SVG Export Plug-In . SVG Version: 6.00 Build 0)  -->
<svg version="1.1" id="Calque_1" xmlns="http://www.w3.org/2000/svg" xmlns:xlink="http://www.w3.org/1999/xlink" x="0px" y="0px"
	 viewBox="0 0 11.1 14" style="enable-background:new 0 0 11.1 14;" xml:space="preserve">
<style type="text/css">
	.white-svg{fill:#FFFFFF;}
</style>
<g>
	<g>
		<path class="white-svg" d="M5.6,7.2C3.6,7.2,2,5.6,2,3.6S3.6,0,5.6,0s3.6,1.6,3.6,3.6S7.5,7.2,5.6,7.2z M5.6,1.7c-1,0-1.9,0.8-1.9,1.9
			s0.8,1.9,1.9,1.9s1.9-0.8,1.9-1.9S6.6,1.7,5.6,1.7z"/>
	</g>
	<path class="white-svg" d="M10.3,14c-0.5,0-0.9-0.4-0.9-0.9c0-1.7-1.4-3.1-3.1-3.1H4.8c-1.7,0-3.1,1.4-3.1,3.1c0,0.5-0.4,0.9-0.9,0.9
		S0,13.6,0,13.1c0-2.6,2.2-4.8,4.8-4.8h1.5c2.6,0,4.8,2.2,4.8,4.8C11.1,13.6,10.7,14,10.3,14z"/>
</g>
</svg>
